%TF.GenerationSoftware,KiCad,Pcbnew,8.0.1*%
%TF.CreationDate,2024-03-30T13:38:22-03:00*%
%TF.ProjectId,Ponderada,506f6e64-6572-4616-9461-2e6b69636164,rev?*%
%TF.SameCoordinates,Original*%
%TF.FileFunction,Soldermask,Bot*%
%TF.FilePolarity,Negative*%
%FSLAX46Y46*%
G04 Gerber Fmt 4.6, Leading zero omitted, Abs format (unit mm)*
G04 Created by KiCad (PCBNEW 8.0.1) date 2024-03-30 13:38:22*
%MOMM*%
%LPD*%
G01*
G04 APERTURE LIST*
%ADD10O,1.700000X1.700000*%
%ADD11R,1.700000X1.700000*%
%ADD12O,1.800000X1.800000*%
%ADD13O,1.500000X1.500000*%
%ADD14C,1.400000*%
%ADD15O,1.400000X1.400000*%
%ADD16R,1.500000X1.050000*%
%ADD17O,1.500000X1.050000*%
%ADD18R,0.850000X0.850000*%
%ADD19O,0.850000X0.850000*%
%ADD20R,1.000000X1.000000*%
%ADD21O,1.000000X1.000000*%
%ADD22R,1.800000X1.800000*%
%ADD23C,1.800000*%
G04 APERTURE END LIST*
D10*
%TO.C,U1*%
X97650000Y-101270000D03*
D11*
X95110000Y-101270000D03*
D10*
X92570000Y-101270000D03*
X104000000Y-53240000D03*
X104000000Y-55780000D03*
D11*
X104000000Y-58320000D03*
D10*
X104000000Y-60860000D03*
X104000000Y-63400000D03*
X104000000Y-65940000D03*
X104000000Y-68480000D03*
D11*
X104000000Y-71020000D03*
D10*
X104000000Y-73560000D03*
X104000000Y-76100000D03*
X104000000Y-78640000D03*
X104000000Y-81180000D03*
D11*
X104000000Y-83720000D03*
D10*
X104000000Y-86260000D03*
X104000000Y-88800000D03*
X104000000Y-91340000D03*
X104000000Y-93880000D03*
D11*
X104000000Y-96420000D03*
D10*
X104000000Y-98960000D03*
X104000000Y-101500000D03*
X86220000Y-101500000D03*
X86220000Y-98960000D03*
D11*
X86220000Y-96420000D03*
D10*
X86220000Y-93880000D03*
X86220000Y-91340000D03*
X86220000Y-88800000D03*
X86220000Y-86260000D03*
D11*
X86220000Y-83720000D03*
D10*
X86220000Y-81180000D03*
X86220000Y-78640000D03*
X86220000Y-76100000D03*
X86220000Y-73560000D03*
D11*
X86220000Y-71020000D03*
D10*
X86220000Y-68480000D03*
X86220000Y-65940000D03*
X86220000Y-63400000D03*
X86220000Y-60860000D03*
D11*
X86220000Y-58320000D03*
D10*
X86220000Y-55780000D03*
X86220000Y-53240000D03*
D12*
X97835000Y-53370000D03*
D13*
X97535000Y-56400000D03*
X92685000Y-56400000D03*
D12*
X92385000Y-53370000D03*
%TD*%
D14*
%TO.C,R1*%
X113000000Y-79460000D03*
D15*
X113000000Y-84540000D03*
%TD*%
D16*
%TO.C,Q1*%
X113500000Y-72730000D03*
D17*
X113500000Y-74000000D03*
X113500000Y-75270000D03*
%TD*%
D18*
%TO.C,J3*%
X78500000Y-61500000D03*
D19*
X78500000Y-62500000D03*
X78500000Y-63500000D03*
X78500000Y-64500000D03*
%TD*%
D20*
%TO.C,J2*%
X114500000Y-57500000D03*
D21*
X114500000Y-56230000D03*
%TD*%
D22*
%TO.C,D1*%
X119265000Y-82770000D03*
D23*
X119265000Y-80230000D03*
%TD*%
M02*
