%TF.GenerationSoftware,KiCad,Pcbnew,8.0.1*%
%TF.CreationDate,2024-03-30T13:38:22-03:00*%
%TF.ProjectId,Ponderada,506f6e64-6572-4616-9461-2e6b69636164,rev?*%
%TF.SameCoordinates,Original*%
%TF.FileFunction,Legend,Top*%
%TF.FilePolarity,Positive*%
%FSLAX46Y46*%
G04 Gerber Fmt 4.6, Leading zero omitted, Abs format (unit mm)*
G04 Created by KiCad (PCBNEW 8.0.1) date 2024-03-30 13:38:22*
%MOMM*%
%LPD*%
G01*
G04 APERTURE LIST*
%ADD10C,0.150000*%
%ADD11C,0.120000*%
G04 APERTURE END LIST*
D10*
X94348095Y-76824819D02*
X94348095Y-77634342D01*
X94348095Y-77634342D02*
X94395714Y-77729580D01*
X94395714Y-77729580D02*
X94443333Y-77777200D01*
X94443333Y-77777200D02*
X94538571Y-77824819D01*
X94538571Y-77824819D02*
X94729047Y-77824819D01*
X94729047Y-77824819D02*
X94824285Y-77777200D01*
X94824285Y-77777200D02*
X94871904Y-77729580D01*
X94871904Y-77729580D02*
X94919523Y-77634342D01*
X94919523Y-77634342D02*
X94919523Y-76824819D01*
X95919523Y-77824819D02*
X95348095Y-77824819D01*
X95633809Y-77824819D02*
X95633809Y-76824819D01*
X95633809Y-76824819D02*
X95538571Y-76967676D01*
X95538571Y-76967676D02*
X95443333Y-77062914D01*
X95443333Y-77062914D02*
X95348095Y-77110533D01*
X107043998Y-73890868D02*
X106963185Y-73917805D01*
X106963185Y-73917805D02*
X106882373Y-73998618D01*
X106882373Y-73998618D02*
X106828498Y-74106367D01*
X106828498Y-74106367D02*
X106828498Y-74214117D01*
X106828498Y-74214117D02*
X106855436Y-74294929D01*
X106855436Y-74294929D02*
X106936248Y-74429616D01*
X106936248Y-74429616D02*
X107017060Y-74510428D01*
X107017060Y-74510428D02*
X107151747Y-74591241D01*
X107151747Y-74591241D02*
X107232560Y-74618178D01*
X107232560Y-74618178D02*
X107340309Y-74618178D01*
X107340309Y-74618178D02*
X107448059Y-74564303D01*
X107448059Y-74564303D02*
X107501934Y-74510428D01*
X107501934Y-74510428D02*
X107555808Y-74402679D01*
X107555808Y-74402679D02*
X107555808Y-74348804D01*
X107555808Y-74348804D02*
X107367247Y-74160242D01*
X107367247Y-74160242D02*
X107259497Y-74267992D01*
X107852120Y-74160242D02*
X107286434Y-73594557D01*
X107286434Y-73594557D02*
X107501934Y-73379057D01*
X107501934Y-73379057D02*
X107582746Y-73352120D01*
X107582746Y-73352120D02*
X107636621Y-73352120D01*
X107636621Y-73352120D02*
X107717433Y-73379057D01*
X107717433Y-73379057D02*
X107798245Y-73459870D01*
X107798245Y-73459870D02*
X107825182Y-73540682D01*
X107825182Y-73540682D02*
X107825182Y-73594557D01*
X107825182Y-73594557D02*
X107798245Y-73675369D01*
X107798245Y-73675369D02*
X107582746Y-73890868D01*
X107879057Y-73109683D02*
X107879057Y-73055809D01*
X107879057Y-73055809D02*
X107905995Y-72974996D01*
X107905995Y-72974996D02*
X108040682Y-72840309D01*
X108040682Y-72840309D02*
X108121494Y-72813372D01*
X108121494Y-72813372D02*
X108175369Y-72813372D01*
X108175369Y-72813372D02*
X108256181Y-72840309D01*
X108256181Y-72840309D02*
X108310056Y-72894184D01*
X108310056Y-72894184D02*
X108363930Y-73001934D01*
X108363930Y-73001934D02*
X108363930Y-73648431D01*
X108363930Y-73648431D02*
X108714117Y-73298245D01*
X108336993Y-72543998D02*
X108714117Y-72166874D01*
X108714117Y-72166874D02*
X109037366Y-72974996D01*
X107948651Y-79313710D02*
X107490716Y-79232898D01*
X107625403Y-79636959D02*
X107059717Y-79071274D01*
X107059717Y-79071274D02*
X107275216Y-78855775D01*
X107275216Y-78855775D02*
X107356029Y-78828837D01*
X107356029Y-78828837D02*
X107409903Y-78828837D01*
X107409903Y-78828837D02*
X107490716Y-78855775D01*
X107490716Y-78855775D02*
X107571528Y-78936587D01*
X107571528Y-78936587D02*
X107598465Y-79017399D01*
X107598465Y-79017399D02*
X107598465Y-79071274D01*
X107598465Y-79071274D02*
X107571528Y-79152086D01*
X107571528Y-79152086D02*
X107356029Y-79367585D01*
X107625403Y-78505588D02*
X108083338Y-78963524D01*
X108083338Y-78963524D02*
X108164151Y-78990462D01*
X108164151Y-78990462D02*
X108218025Y-78990462D01*
X108218025Y-78990462D02*
X108298838Y-78963524D01*
X108298838Y-78963524D02*
X108406587Y-78855775D01*
X108406587Y-78855775D02*
X108433525Y-78774962D01*
X108433525Y-78774962D02*
X108433525Y-78721088D01*
X108433525Y-78721088D02*
X108406587Y-78640275D01*
X108406587Y-78640275D02*
X107948651Y-78182340D01*
X108783711Y-78478651D02*
X108218025Y-77912966D01*
X108218025Y-77912966D02*
X109106959Y-78155402D01*
X109106959Y-78155402D02*
X108541274Y-77589717D01*
X81099998Y-86650868D02*
X81019185Y-86677805D01*
X81019185Y-86677805D02*
X80938373Y-86758618D01*
X80938373Y-86758618D02*
X80884498Y-86866367D01*
X80884498Y-86866367D02*
X80884498Y-86974117D01*
X80884498Y-86974117D02*
X80911436Y-87054929D01*
X80911436Y-87054929D02*
X80992248Y-87189616D01*
X80992248Y-87189616D02*
X81073060Y-87270428D01*
X81073060Y-87270428D02*
X81207747Y-87351241D01*
X81207747Y-87351241D02*
X81288560Y-87378178D01*
X81288560Y-87378178D02*
X81396309Y-87378178D01*
X81396309Y-87378178D02*
X81504059Y-87324303D01*
X81504059Y-87324303D02*
X81557934Y-87270428D01*
X81557934Y-87270428D02*
X81611808Y-87162679D01*
X81611808Y-87162679D02*
X81611808Y-87108804D01*
X81611808Y-87108804D02*
X81423247Y-86920242D01*
X81423247Y-86920242D02*
X81315497Y-87027992D01*
X81908120Y-86920242D02*
X81342434Y-86354557D01*
X81342434Y-86354557D02*
X81557934Y-86139057D01*
X81557934Y-86139057D02*
X81638746Y-86112120D01*
X81638746Y-86112120D02*
X81692621Y-86112120D01*
X81692621Y-86112120D02*
X81773433Y-86139057D01*
X81773433Y-86139057D02*
X81854245Y-86219870D01*
X81854245Y-86219870D02*
X81881182Y-86300682D01*
X81881182Y-86300682D02*
X81881182Y-86354557D01*
X81881182Y-86354557D02*
X81854245Y-86435369D01*
X81854245Y-86435369D02*
X81638746Y-86650868D01*
X82770117Y-86058245D02*
X82446868Y-86381494D01*
X82608492Y-86219870D02*
X82042807Y-85654184D01*
X82042807Y-85654184D02*
X82069744Y-85788871D01*
X82069744Y-85788871D02*
X82069744Y-85896621D01*
X82069744Y-85896621D02*
X82042807Y-85977433D01*
X82554618Y-85142373D02*
X82608492Y-85088499D01*
X82608492Y-85088499D02*
X82689305Y-85061561D01*
X82689305Y-85061561D02*
X82743179Y-85061561D01*
X82743179Y-85061561D02*
X82823992Y-85088499D01*
X82823992Y-85088499D02*
X82958679Y-85169311D01*
X82958679Y-85169311D02*
X83093366Y-85303998D01*
X83093366Y-85303998D02*
X83174178Y-85438685D01*
X83174178Y-85438685D02*
X83201115Y-85519497D01*
X83201115Y-85519497D02*
X83201115Y-85573372D01*
X83201115Y-85573372D02*
X83174178Y-85654184D01*
X83174178Y-85654184D02*
X83120303Y-85708059D01*
X83120303Y-85708059D02*
X83039491Y-85734996D01*
X83039491Y-85734996D02*
X82985616Y-85734996D01*
X82985616Y-85734996D02*
X82904804Y-85708059D01*
X82904804Y-85708059D02*
X82770117Y-85627247D01*
X82770117Y-85627247D02*
X82635430Y-85492560D01*
X82635430Y-85492560D02*
X82554618Y-85357873D01*
X82554618Y-85357873D02*
X82527680Y-85277060D01*
X82527680Y-85277060D02*
X82527680Y-85223186D01*
X82527680Y-85223186D02*
X82554618Y-85142373D01*
X81523372Y-55891494D02*
X81442560Y-55918431D01*
X81442560Y-55918431D02*
X81361748Y-55999243D01*
X81361748Y-55999243D02*
X81307873Y-56106993D01*
X81307873Y-56106993D02*
X81307873Y-56214742D01*
X81307873Y-56214742D02*
X81334810Y-56295555D01*
X81334810Y-56295555D02*
X81415623Y-56430242D01*
X81415623Y-56430242D02*
X81496435Y-56511054D01*
X81496435Y-56511054D02*
X81631122Y-56591866D01*
X81631122Y-56591866D02*
X81711934Y-56618803D01*
X81711934Y-56618803D02*
X81819684Y-56618803D01*
X81819684Y-56618803D02*
X81927433Y-56564929D01*
X81927433Y-56564929D02*
X81981308Y-56511054D01*
X81981308Y-56511054D02*
X82035183Y-56403304D01*
X82035183Y-56403304D02*
X82035183Y-56349429D01*
X82035183Y-56349429D02*
X81846621Y-56160868D01*
X81846621Y-56160868D02*
X81738871Y-56268617D01*
X82331494Y-56160868D02*
X81765809Y-55595182D01*
X81765809Y-55595182D02*
X81981308Y-55379683D01*
X81981308Y-55379683D02*
X82062120Y-55352746D01*
X82062120Y-55352746D02*
X82115995Y-55352746D01*
X82115995Y-55352746D02*
X82196807Y-55379683D01*
X82196807Y-55379683D02*
X82277619Y-55460495D01*
X82277619Y-55460495D02*
X82304557Y-55541307D01*
X82304557Y-55541307D02*
X82304557Y-55595182D01*
X82304557Y-55595182D02*
X82277619Y-55675994D01*
X82277619Y-55675994D02*
X82062120Y-55891494D01*
X83193491Y-55298871D02*
X82870242Y-55622120D01*
X83031867Y-55460495D02*
X82466181Y-54894810D01*
X82466181Y-54894810D02*
X82493119Y-55029497D01*
X82493119Y-55029497D02*
X82493119Y-55137246D01*
X82493119Y-55137246D02*
X82466181Y-55218059D01*
X80953998Y-91730868D02*
X80873185Y-91757805D01*
X80873185Y-91757805D02*
X80792373Y-91838618D01*
X80792373Y-91838618D02*
X80738498Y-91946367D01*
X80738498Y-91946367D02*
X80738498Y-92054117D01*
X80738498Y-92054117D02*
X80765436Y-92134929D01*
X80765436Y-92134929D02*
X80846248Y-92269616D01*
X80846248Y-92269616D02*
X80927060Y-92350428D01*
X80927060Y-92350428D02*
X81061747Y-92431241D01*
X81061747Y-92431241D02*
X81142560Y-92458178D01*
X81142560Y-92458178D02*
X81250309Y-92458178D01*
X81250309Y-92458178D02*
X81358059Y-92404303D01*
X81358059Y-92404303D02*
X81411934Y-92350428D01*
X81411934Y-92350428D02*
X81465808Y-92242679D01*
X81465808Y-92242679D02*
X81465808Y-92188804D01*
X81465808Y-92188804D02*
X81277247Y-92000242D01*
X81277247Y-92000242D02*
X81169497Y-92107992D01*
X81762120Y-92000242D02*
X81196434Y-91434557D01*
X81196434Y-91434557D02*
X81411934Y-91219057D01*
X81411934Y-91219057D02*
X81492746Y-91192120D01*
X81492746Y-91192120D02*
X81546621Y-91192120D01*
X81546621Y-91192120D02*
X81627433Y-91219057D01*
X81627433Y-91219057D02*
X81708245Y-91299870D01*
X81708245Y-91299870D02*
X81735182Y-91380682D01*
X81735182Y-91380682D02*
X81735182Y-91434557D01*
X81735182Y-91434557D02*
X81708245Y-91515369D01*
X81708245Y-91515369D02*
X81492746Y-91730868D01*
X82624117Y-91138245D02*
X82300868Y-91461494D01*
X82462492Y-91299870D02*
X81896807Y-90734184D01*
X81896807Y-90734184D02*
X81923744Y-90868871D01*
X81923744Y-90868871D02*
X81923744Y-90976621D01*
X81923744Y-90976621D02*
X81896807Y-91057433D01*
X82327805Y-90410935D02*
X82327805Y-90357060D01*
X82327805Y-90357060D02*
X82354743Y-90276248D01*
X82354743Y-90276248D02*
X82489430Y-90141561D01*
X82489430Y-90141561D02*
X82570242Y-90114624D01*
X82570242Y-90114624D02*
X82624117Y-90114624D01*
X82624117Y-90114624D02*
X82704929Y-90141561D01*
X82704929Y-90141561D02*
X82758804Y-90195436D01*
X82758804Y-90195436D02*
X82812679Y-90303186D01*
X82812679Y-90303186D02*
X82812679Y-90949683D01*
X82812679Y-90949683D02*
X83162865Y-90599497D01*
X106720749Y-56160242D02*
X107474996Y-56537366D01*
X107474996Y-56537366D02*
X107097873Y-55783118D01*
X107798245Y-56160242D02*
X107905995Y-56106367D01*
X107905995Y-56106367D02*
X108040682Y-55971680D01*
X108040682Y-55971680D02*
X108067619Y-55890868D01*
X108067619Y-55890868D02*
X108067619Y-55836993D01*
X108067619Y-55836993D02*
X108040682Y-55756181D01*
X108040682Y-55756181D02*
X107986807Y-55702306D01*
X107986807Y-55702306D02*
X107905995Y-55675369D01*
X107905995Y-55675369D02*
X107852120Y-55675369D01*
X107852120Y-55675369D02*
X107771308Y-55702306D01*
X107771308Y-55702306D02*
X107636621Y-55783118D01*
X107636621Y-55783118D02*
X107555808Y-55810056D01*
X107555808Y-55810056D02*
X107501934Y-55810056D01*
X107501934Y-55810056D02*
X107421121Y-55783118D01*
X107421121Y-55783118D02*
X107367247Y-55729244D01*
X107367247Y-55729244D02*
X107340309Y-55648431D01*
X107340309Y-55648431D02*
X107340309Y-55594557D01*
X107340309Y-55594557D02*
X107367247Y-55513744D01*
X107367247Y-55513744D02*
X107501934Y-55379057D01*
X107501934Y-55379057D02*
X107609683Y-55325183D01*
X108229244Y-55244370D02*
X108498618Y-55513744D01*
X107744370Y-55136621D02*
X108229244Y-55244370D01*
X108229244Y-55244370D02*
X108121494Y-54759497D01*
X108821866Y-55136621D02*
X108929616Y-55082746D01*
X108929616Y-55082746D02*
X109064303Y-54948059D01*
X109064303Y-54948059D02*
X109091240Y-54867247D01*
X109091240Y-54867247D02*
X109091240Y-54813372D01*
X109091240Y-54813372D02*
X109064303Y-54732560D01*
X109064303Y-54732560D02*
X109010428Y-54678685D01*
X109010428Y-54678685D02*
X108929616Y-54651748D01*
X108929616Y-54651748D02*
X108875741Y-54651748D01*
X108875741Y-54651748D02*
X108794929Y-54678685D01*
X108794929Y-54678685D02*
X108660242Y-54759497D01*
X108660242Y-54759497D02*
X108579430Y-54786435D01*
X108579430Y-54786435D02*
X108525555Y-54786435D01*
X108525555Y-54786435D02*
X108444743Y-54759497D01*
X108444743Y-54759497D02*
X108390868Y-54705622D01*
X108390868Y-54705622D02*
X108363930Y-54624810D01*
X108363930Y-54624810D02*
X108363930Y-54570935D01*
X108363930Y-54570935D02*
X108390868Y-54490123D01*
X108390868Y-54490123D02*
X108525555Y-54355436D01*
X108525555Y-54355436D02*
X108633304Y-54301561D01*
X81053998Y-99350868D02*
X80973185Y-99377805D01*
X80973185Y-99377805D02*
X80892373Y-99458618D01*
X80892373Y-99458618D02*
X80838498Y-99566367D01*
X80838498Y-99566367D02*
X80838498Y-99674117D01*
X80838498Y-99674117D02*
X80865436Y-99754929D01*
X80865436Y-99754929D02*
X80946248Y-99889616D01*
X80946248Y-99889616D02*
X81027060Y-99970428D01*
X81027060Y-99970428D02*
X81161747Y-100051241D01*
X81161747Y-100051241D02*
X81242560Y-100078178D01*
X81242560Y-100078178D02*
X81350309Y-100078178D01*
X81350309Y-100078178D02*
X81458059Y-100024303D01*
X81458059Y-100024303D02*
X81511934Y-99970428D01*
X81511934Y-99970428D02*
X81565808Y-99862679D01*
X81565808Y-99862679D02*
X81565808Y-99808804D01*
X81565808Y-99808804D02*
X81377247Y-99620242D01*
X81377247Y-99620242D02*
X81269497Y-99727992D01*
X81862120Y-99620242D02*
X81296434Y-99054557D01*
X81296434Y-99054557D02*
X81511934Y-98839057D01*
X81511934Y-98839057D02*
X81592746Y-98812120D01*
X81592746Y-98812120D02*
X81646621Y-98812120D01*
X81646621Y-98812120D02*
X81727433Y-98839057D01*
X81727433Y-98839057D02*
X81808245Y-98919870D01*
X81808245Y-98919870D02*
X81835182Y-99000682D01*
X81835182Y-99000682D02*
X81835182Y-99054557D01*
X81835182Y-99054557D02*
X81808245Y-99135369D01*
X81808245Y-99135369D02*
X81592746Y-99350868D01*
X82724117Y-98758245D02*
X82400868Y-99081494D01*
X82562492Y-98919870D02*
X81996807Y-98354184D01*
X81996807Y-98354184D02*
X82023744Y-98488871D01*
X82023744Y-98488871D02*
X82023744Y-98596621D01*
X82023744Y-98596621D02*
X81996807Y-98677433D01*
X82831866Y-97896248D02*
X83208990Y-98273372D01*
X82481680Y-97815436D02*
X82751054Y-98354184D01*
X82751054Y-98354184D02*
X83101240Y-98003998D01*
X81596435Y-83868431D02*
X81515623Y-83895368D01*
X81515623Y-83895368D02*
X81434811Y-83976180D01*
X81434811Y-83976180D02*
X81380936Y-84083930D01*
X81380936Y-84083930D02*
X81380936Y-84191680D01*
X81380936Y-84191680D02*
X81407873Y-84272492D01*
X81407873Y-84272492D02*
X81488685Y-84407179D01*
X81488685Y-84407179D02*
X81569498Y-84487991D01*
X81569498Y-84487991D02*
X81704185Y-84568803D01*
X81704185Y-84568803D02*
X81784997Y-84595741D01*
X81784997Y-84595741D02*
X81892746Y-84595741D01*
X81892746Y-84595741D02*
X82000496Y-84541866D01*
X82000496Y-84541866D02*
X82054371Y-84487991D01*
X82054371Y-84487991D02*
X82108246Y-84380241D01*
X82108246Y-84380241D02*
X82108246Y-84326367D01*
X82108246Y-84326367D02*
X81919684Y-84137805D01*
X81919684Y-84137805D02*
X81811934Y-84245554D01*
X82404557Y-84137805D02*
X81838872Y-83572119D01*
X81838872Y-83572119D02*
X82727806Y-83814556D01*
X82727806Y-83814556D02*
X82162120Y-83248871D01*
X82997180Y-83545182D02*
X82431494Y-82979497D01*
X82431494Y-82979497D02*
X82566181Y-82844810D01*
X82566181Y-82844810D02*
X82673931Y-82790935D01*
X82673931Y-82790935D02*
X82781680Y-82790935D01*
X82781680Y-82790935D02*
X82862493Y-82817872D01*
X82862493Y-82817872D02*
X82997180Y-82898685D01*
X82997180Y-82898685D02*
X83077992Y-82979497D01*
X83077992Y-82979497D02*
X83158804Y-83114184D01*
X83158804Y-83114184D02*
X83185741Y-83194996D01*
X83185741Y-83194996D02*
X83185741Y-83302746D01*
X83185741Y-83302746D02*
X83131867Y-83410495D01*
X83131867Y-83410495D02*
X82997180Y-83545182D01*
X107207998Y-81570868D02*
X107127185Y-81597805D01*
X107127185Y-81597805D02*
X107046373Y-81678618D01*
X107046373Y-81678618D02*
X106992498Y-81786367D01*
X106992498Y-81786367D02*
X106992498Y-81894117D01*
X106992498Y-81894117D02*
X107019436Y-81974929D01*
X107019436Y-81974929D02*
X107100248Y-82109616D01*
X107100248Y-82109616D02*
X107181060Y-82190428D01*
X107181060Y-82190428D02*
X107315747Y-82271241D01*
X107315747Y-82271241D02*
X107396560Y-82298178D01*
X107396560Y-82298178D02*
X107504309Y-82298178D01*
X107504309Y-82298178D02*
X107612059Y-82244303D01*
X107612059Y-82244303D02*
X107665934Y-82190428D01*
X107665934Y-82190428D02*
X107719808Y-82082679D01*
X107719808Y-82082679D02*
X107719808Y-82028804D01*
X107719808Y-82028804D02*
X107531247Y-81840242D01*
X107531247Y-81840242D02*
X107423497Y-81947992D01*
X108016120Y-81840242D02*
X107450434Y-81274557D01*
X107450434Y-81274557D02*
X107665934Y-81059057D01*
X107665934Y-81059057D02*
X107746746Y-81032120D01*
X107746746Y-81032120D02*
X107800621Y-81032120D01*
X107800621Y-81032120D02*
X107881433Y-81059057D01*
X107881433Y-81059057D02*
X107962245Y-81139870D01*
X107962245Y-81139870D02*
X107989182Y-81220682D01*
X107989182Y-81220682D02*
X107989182Y-81274557D01*
X107989182Y-81274557D02*
X107962245Y-81355369D01*
X107962245Y-81355369D02*
X107746746Y-81570868D01*
X108043057Y-80789683D02*
X108043057Y-80735809D01*
X108043057Y-80735809D02*
X108069995Y-80654996D01*
X108069995Y-80654996D02*
X108204682Y-80520309D01*
X108204682Y-80520309D02*
X108285494Y-80493372D01*
X108285494Y-80493372D02*
X108339369Y-80493372D01*
X108339369Y-80493372D02*
X108420181Y-80520309D01*
X108420181Y-80520309D02*
X108474056Y-80574184D01*
X108474056Y-80574184D02*
X108527930Y-80681934D01*
X108527930Y-80681934D02*
X108527930Y-81328431D01*
X108527930Y-81328431D02*
X108878117Y-80978245D01*
X108581805Y-80250935D02*
X108581805Y-80197060D01*
X108581805Y-80197060D02*
X108608743Y-80116248D01*
X108608743Y-80116248D02*
X108743430Y-79981561D01*
X108743430Y-79981561D02*
X108824242Y-79954624D01*
X108824242Y-79954624D02*
X108878117Y-79954624D01*
X108878117Y-79954624D02*
X108958929Y-79981561D01*
X108958929Y-79981561D02*
X109012804Y-80035436D01*
X109012804Y-80035436D02*
X109066679Y-80143186D01*
X109066679Y-80143186D02*
X109066679Y-80789683D01*
X109066679Y-80789683D02*
X109416865Y-80439497D01*
X107207998Y-86660868D02*
X107127185Y-86687805D01*
X107127185Y-86687805D02*
X107046373Y-86768618D01*
X107046373Y-86768618D02*
X106992498Y-86876367D01*
X106992498Y-86876367D02*
X106992498Y-86984117D01*
X106992498Y-86984117D02*
X107019436Y-87064929D01*
X107019436Y-87064929D02*
X107100248Y-87199616D01*
X107100248Y-87199616D02*
X107181060Y-87280428D01*
X107181060Y-87280428D02*
X107315747Y-87361241D01*
X107315747Y-87361241D02*
X107396560Y-87388178D01*
X107396560Y-87388178D02*
X107504309Y-87388178D01*
X107504309Y-87388178D02*
X107612059Y-87334303D01*
X107612059Y-87334303D02*
X107665934Y-87280428D01*
X107665934Y-87280428D02*
X107719808Y-87172679D01*
X107719808Y-87172679D02*
X107719808Y-87118804D01*
X107719808Y-87118804D02*
X107531247Y-86930242D01*
X107531247Y-86930242D02*
X107423497Y-87037992D01*
X108016120Y-86930242D02*
X107450434Y-86364557D01*
X107450434Y-86364557D02*
X107665934Y-86149057D01*
X107665934Y-86149057D02*
X107746746Y-86122120D01*
X107746746Y-86122120D02*
X107800621Y-86122120D01*
X107800621Y-86122120D02*
X107881433Y-86149057D01*
X107881433Y-86149057D02*
X107962245Y-86229870D01*
X107962245Y-86229870D02*
X107989182Y-86310682D01*
X107989182Y-86310682D02*
X107989182Y-86364557D01*
X107989182Y-86364557D02*
X107962245Y-86445369D01*
X107962245Y-86445369D02*
X107746746Y-86660868D01*
X108043057Y-85879683D02*
X108043057Y-85825809D01*
X108043057Y-85825809D02*
X108069995Y-85744996D01*
X108069995Y-85744996D02*
X108204682Y-85610309D01*
X108204682Y-85610309D02*
X108285494Y-85583372D01*
X108285494Y-85583372D02*
X108339369Y-85583372D01*
X108339369Y-85583372D02*
X108420181Y-85610309D01*
X108420181Y-85610309D02*
X108474056Y-85664184D01*
X108474056Y-85664184D02*
X108527930Y-85771934D01*
X108527930Y-85771934D02*
X108527930Y-86418431D01*
X108527930Y-86418431D02*
X108878117Y-86068245D01*
X109416865Y-85529497D02*
X109093616Y-85852746D01*
X109255240Y-85691121D02*
X108689555Y-85125436D01*
X108689555Y-85125436D02*
X108716492Y-85260123D01*
X108716492Y-85260123D02*
X108716492Y-85367873D01*
X108716492Y-85367873D02*
X108689555Y-85448685D01*
X81623372Y-73681494D02*
X81542560Y-73708431D01*
X81542560Y-73708431D02*
X81461748Y-73789243D01*
X81461748Y-73789243D02*
X81407873Y-73896993D01*
X81407873Y-73896993D02*
X81407873Y-74004742D01*
X81407873Y-74004742D02*
X81434810Y-74085555D01*
X81434810Y-74085555D02*
X81515623Y-74220242D01*
X81515623Y-74220242D02*
X81596435Y-74301054D01*
X81596435Y-74301054D02*
X81731122Y-74381866D01*
X81731122Y-74381866D02*
X81811934Y-74408803D01*
X81811934Y-74408803D02*
X81919684Y-74408803D01*
X81919684Y-74408803D02*
X82027433Y-74354929D01*
X82027433Y-74354929D02*
X82081308Y-74301054D01*
X82081308Y-74301054D02*
X82135183Y-74193304D01*
X82135183Y-74193304D02*
X82135183Y-74139429D01*
X82135183Y-74139429D02*
X81946621Y-73950868D01*
X81946621Y-73950868D02*
X81838871Y-74058617D01*
X82431494Y-73950868D02*
X81865809Y-73385182D01*
X81865809Y-73385182D02*
X82081308Y-73169683D01*
X82081308Y-73169683D02*
X82162120Y-73142746D01*
X82162120Y-73142746D02*
X82215995Y-73142746D01*
X82215995Y-73142746D02*
X82296807Y-73169683D01*
X82296807Y-73169683D02*
X82377619Y-73250495D01*
X82377619Y-73250495D02*
X82404557Y-73331307D01*
X82404557Y-73331307D02*
X82404557Y-73385182D01*
X82404557Y-73385182D02*
X82377619Y-73465994D01*
X82377619Y-73465994D02*
X82162120Y-73681494D01*
X82673931Y-72577060D02*
X82566181Y-72684810D01*
X82566181Y-72684810D02*
X82539244Y-72765622D01*
X82539244Y-72765622D02*
X82539244Y-72819497D01*
X82539244Y-72819497D02*
X82566181Y-72954184D01*
X82566181Y-72954184D02*
X82646993Y-73088871D01*
X82646993Y-73088871D02*
X82862493Y-73304370D01*
X82862493Y-73304370D02*
X82943305Y-73331307D01*
X82943305Y-73331307D02*
X82997180Y-73331307D01*
X82997180Y-73331307D02*
X83077992Y-73304370D01*
X83077992Y-73304370D02*
X83185741Y-73196620D01*
X83185741Y-73196620D02*
X83212679Y-73115808D01*
X83212679Y-73115808D02*
X83212679Y-73061933D01*
X83212679Y-73061933D02*
X83185741Y-72981121D01*
X83185741Y-72981121D02*
X83051054Y-72846434D01*
X83051054Y-72846434D02*
X82970242Y-72819497D01*
X82970242Y-72819497D02*
X82916367Y-72819497D01*
X82916367Y-72819497D02*
X82835555Y-72846434D01*
X82835555Y-72846434D02*
X82727806Y-72954184D01*
X82727806Y-72954184D02*
X82700868Y-73034996D01*
X82700868Y-73034996D02*
X82700868Y-73088871D01*
X82700868Y-73088871D02*
X82727806Y-73169683D01*
X107207998Y-94270868D02*
X107127185Y-94297805D01*
X107127185Y-94297805D02*
X107046373Y-94378618D01*
X107046373Y-94378618D02*
X106992498Y-94486367D01*
X106992498Y-94486367D02*
X106992498Y-94594117D01*
X106992498Y-94594117D02*
X107019436Y-94674929D01*
X107019436Y-94674929D02*
X107100248Y-94809616D01*
X107100248Y-94809616D02*
X107181060Y-94890428D01*
X107181060Y-94890428D02*
X107315747Y-94971241D01*
X107315747Y-94971241D02*
X107396560Y-94998178D01*
X107396560Y-94998178D02*
X107504309Y-94998178D01*
X107504309Y-94998178D02*
X107612059Y-94944303D01*
X107612059Y-94944303D02*
X107665934Y-94890428D01*
X107665934Y-94890428D02*
X107719808Y-94782679D01*
X107719808Y-94782679D02*
X107719808Y-94728804D01*
X107719808Y-94728804D02*
X107531247Y-94540242D01*
X107531247Y-94540242D02*
X107423497Y-94647992D01*
X108016120Y-94540242D02*
X107450434Y-93974557D01*
X107450434Y-93974557D02*
X107665934Y-93759057D01*
X107665934Y-93759057D02*
X107746746Y-93732120D01*
X107746746Y-93732120D02*
X107800621Y-93732120D01*
X107800621Y-93732120D02*
X107881433Y-93759057D01*
X107881433Y-93759057D02*
X107962245Y-93839870D01*
X107962245Y-93839870D02*
X107989182Y-93920682D01*
X107989182Y-93920682D02*
X107989182Y-93974557D01*
X107989182Y-93974557D02*
X107962245Y-94055369D01*
X107962245Y-94055369D02*
X107746746Y-94270868D01*
X108878117Y-93678245D02*
X108554868Y-94001494D01*
X108716492Y-93839870D02*
X108150807Y-93274184D01*
X108150807Y-93274184D02*
X108177744Y-93408871D01*
X108177744Y-93408871D02*
X108177744Y-93516621D01*
X108177744Y-93516621D02*
X108150807Y-93597433D01*
X108878117Y-93031747D02*
X108797305Y-93058685D01*
X108797305Y-93058685D02*
X108743430Y-93058685D01*
X108743430Y-93058685D02*
X108662618Y-93031747D01*
X108662618Y-93031747D02*
X108635680Y-93004810D01*
X108635680Y-93004810D02*
X108608743Y-92923998D01*
X108608743Y-92923998D02*
X108608743Y-92870123D01*
X108608743Y-92870123D02*
X108635680Y-92789311D01*
X108635680Y-92789311D02*
X108743430Y-92681561D01*
X108743430Y-92681561D02*
X108824242Y-92654624D01*
X108824242Y-92654624D02*
X108878117Y-92654624D01*
X108878117Y-92654624D02*
X108958929Y-92681561D01*
X108958929Y-92681561D02*
X108985866Y-92708499D01*
X108985866Y-92708499D02*
X109012804Y-92789311D01*
X109012804Y-92789311D02*
X109012804Y-92843186D01*
X109012804Y-92843186D02*
X108985866Y-92923998D01*
X108985866Y-92923998D02*
X108878117Y-93031747D01*
X108878117Y-93031747D02*
X108851179Y-93112560D01*
X108851179Y-93112560D02*
X108851179Y-93166434D01*
X108851179Y-93166434D02*
X108878117Y-93247247D01*
X108878117Y-93247247D02*
X108985866Y-93354996D01*
X108985866Y-93354996D02*
X109066679Y-93381934D01*
X109066679Y-93381934D02*
X109120553Y-93381934D01*
X109120553Y-93381934D02*
X109201366Y-93354996D01*
X109201366Y-93354996D02*
X109309115Y-93247247D01*
X109309115Y-93247247D02*
X109336053Y-93166434D01*
X109336053Y-93166434D02*
X109336053Y-93112560D01*
X109336053Y-93112560D02*
X109309115Y-93031747D01*
X109309115Y-93031747D02*
X109201366Y-92923998D01*
X109201366Y-92923998D02*
X109120553Y-92897060D01*
X109120553Y-92897060D02*
X109066679Y-92897060D01*
X109066679Y-92897060D02*
X108985866Y-92923998D01*
X81523372Y-60981494D02*
X81442560Y-61008431D01*
X81442560Y-61008431D02*
X81361748Y-61089243D01*
X81361748Y-61089243D02*
X81307873Y-61196993D01*
X81307873Y-61196993D02*
X81307873Y-61304742D01*
X81307873Y-61304742D02*
X81334810Y-61385555D01*
X81334810Y-61385555D02*
X81415623Y-61520242D01*
X81415623Y-61520242D02*
X81496435Y-61601054D01*
X81496435Y-61601054D02*
X81631122Y-61681866D01*
X81631122Y-61681866D02*
X81711934Y-61708803D01*
X81711934Y-61708803D02*
X81819684Y-61708803D01*
X81819684Y-61708803D02*
X81927433Y-61654929D01*
X81927433Y-61654929D02*
X81981308Y-61601054D01*
X81981308Y-61601054D02*
X82035183Y-61493304D01*
X82035183Y-61493304D02*
X82035183Y-61439429D01*
X82035183Y-61439429D02*
X81846621Y-61250868D01*
X81846621Y-61250868D02*
X81738871Y-61358617D01*
X82331494Y-61250868D02*
X81765809Y-60685182D01*
X81765809Y-60685182D02*
X81981308Y-60469683D01*
X81981308Y-60469683D02*
X82062120Y-60442746D01*
X82062120Y-60442746D02*
X82115995Y-60442746D01*
X82115995Y-60442746D02*
X82196807Y-60469683D01*
X82196807Y-60469683D02*
X82277619Y-60550495D01*
X82277619Y-60550495D02*
X82304557Y-60631307D01*
X82304557Y-60631307D02*
X82304557Y-60685182D01*
X82304557Y-60685182D02*
X82277619Y-60765994D01*
X82277619Y-60765994D02*
X82062120Y-60981494D01*
X82358432Y-60200309D02*
X82358432Y-60146434D01*
X82358432Y-60146434D02*
X82385369Y-60065622D01*
X82385369Y-60065622D02*
X82520056Y-59930935D01*
X82520056Y-59930935D02*
X82600868Y-59903998D01*
X82600868Y-59903998D02*
X82654743Y-59903998D01*
X82654743Y-59903998D02*
X82735555Y-59930935D01*
X82735555Y-59930935D02*
X82789430Y-59984810D01*
X82789430Y-59984810D02*
X82843305Y-60092559D01*
X82843305Y-60092559D02*
X82843305Y-60739057D01*
X82843305Y-60739057D02*
X83193491Y-60388871D01*
X107207998Y-91730868D02*
X107127185Y-91757805D01*
X107127185Y-91757805D02*
X107046373Y-91838618D01*
X107046373Y-91838618D02*
X106992498Y-91946367D01*
X106992498Y-91946367D02*
X106992498Y-92054117D01*
X106992498Y-92054117D02*
X107019436Y-92134929D01*
X107019436Y-92134929D02*
X107100248Y-92269616D01*
X107100248Y-92269616D02*
X107181060Y-92350428D01*
X107181060Y-92350428D02*
X107315747Y-92431241D01*
X107315747Y-92431241D02*
X107396560Y-92458178D01*
X107396560Y-92458178D02*
X107504309Y-92458178D01*
X107504309Y-92458178D02*
X107612059Y-92404303D01*
X107612059Y-92404303D02*
X107665934Y-92350428D01*
X107665934Y-92350428D02*
X107719808Y-92242679D01*
X107719808Y-92242679D02*
X107719808Y-92188804D01*
X107719808Y-92188804D02*
X107531247Y-92000242D01*
X107531247Y-92000242D02*
X107423497Y-92107992D01*
X108016120Y-92000242D02*
X107450434Y-91434557D01*
X107450434Y-91434557D02*
X107665934Y-91219057D01*
X107665934Y-91219057D02*
X107746746Y-91192120D01*
X107746746Y-91192120D02*
X107800621Y-91192120D01*
X107800621Y-91192120D02*
X107881433Y-91219057D01*
X107881433Y-91219057D02*
X107962245Y-91299870D01*
X107962245Y-91299870D02*
X107989182Y-91380682D01*
X107989182Y-91380682D02*
X107989182Y-91434557D01*
X107989182Y-91434557D02*
X107962245Y-91515369D01*
X107962245Y-91515369D02*
X107746746Y-91730868D01*
X108878117Y-91138245D02*
X108554868Y-91461494D01*
X108716492Y-91299870D02*
X108150807Y-90734184D01*
X108150807Y-90734184D02*
X108177744Y-90868871D01*
X108177744Y-90868871D02*
X108177744Y-90976621D01*
X108177744Y-90976621D02*
X108150807Y-91057433D01*
X109147491Y-90868871D02*
X109255240Y-90761121D01*
X109255240Y-90761121D02*
X109282178Y-90680309D01*
X109282178Y-90680309D02*
X109282178Y-90626434D01*
X109282178Y-90626434D02*
X109255240Y-90491747D01*
X109255240Y-90491747D02*
X109174428Y-90357060D01*
X109174428Y-90357060D02*
X108958929Y-90141561D01*
X108958929Y-90141561D02*
X108878117Y-90114624D01*
X108878117Y-90114624D02*
X108824242Y-90114624D01*
X108824242Y-90114624D02*
X108743430Y-90141561D01*
X108743430Y-90141561D02*
X108635680Y-90249311D01*
X108635680Y-90249311D02*
X108608743Y-90330123D01*
X108608743Y-90330123D02*
X108608743Y-90383998D01*
X108608743Y-90383998D02*
X108635680Y-90464810D01*
X108635680Y-90464810D02*
X108770367Y-90599497D01*
X108770367Y-90599497D02*
X108851179Y-90626434D01*
X108851179Y-90626434D02*
X108905054Y-90626434D01*
X108905054Y-90626434D02*
X108985866Y-90599497D01*
X108985866Y-90599497D02*
X109093616Y-90491747D01*
X109093616Y-90491747D02*
X109120553Y-90410935D01*
X109120553Y-90410935D02*
X109120553Y-90357060D01*
X109120553Y-90357060D02*
X109093616Y-90276248D01*
X107207998Y-89190868D02*
X107127185Y-89217805D01*
X107127185Y-89217805D02*
X107046373Y-89298618D01*
X107046373Y-89298618D02*
X106992498Y-89406367D01*
X106992498Y-89406367D02*
X106992498Y-89514117D01*
X106992498Y-89514117D02*
X107019436Y-89594929D01*
X107019436Y-89594929D02*
X107100248Y-89729616D01*
X107100248Y-89729616D02*
X107181060Y-89810428D01*
X107181060Y-89810428D02*
X107315747Y-89891241D01*
X107315747Y-89891241D02*
X107396560Y-89918178D01*
X107396560Y-89918178D02*
X107504309Y-89918178D01*
X107504309Y-89918178D02*
X107612059Y-89864303D01*
X107612059Y-89864303D02*
X107665934Y-89810428D01*
X107665934Y-89810428D02*
X107719808Y-89702679D01*
X107719808Y-89702679D02*
X107719808Y-89648804D01*
X107719808Y-89648804D02*
X107531247Y-89460242D01*
X107531247Y-89460242D02*
X107423497Y-89567992D01*
X108016120Y-89460242D02*
X107450434Y-88894557D01*
X107450434Y-88894557D02*
X107665934Y-88679057D01*
X107665934Y-88679057D02*
X107746746Y-88652120D01*
X107746746Y-88652120D02*
X107800621Y-88652120D01*
X107800621Y-88652120D02*
X107881433Y-88679057D01*
X107881433Y-88679057D02*
X107962245Y-88759870D01*
X107962245Y-88759870D02*
X107989182Y-88840682D01*
X107989182Y-88840682D02*
X107989182Y-88894557D01*
X107989182Y-88894557D02*
X107962245Y-88975369D01*
X107962245Y-88975369D02*
X107746746Y-89190868D01*
X108043057Y-88409683D02*
X108043057Y-88355809D01*
X108043057Y-88355809D02*
X108069995Y-88274996D01*
X108069995Y-88274996D02*
X108204682Y-88140309D01*
X108204682Y-88140309D02*
X108285494Y-88113372D01*
X108285494Y-88113372D02*
X108339369Y-88113372D01*
X108339369Y-88113372D02*
X108420181Y-88140309D01*
X108420181Y-88140309D02*
X108474056Y-88194184D01*
X108474056Y-88194184D02*
X108527930Y-88301934D01*
X108527930Y-88301934D02*
X108527930Y-88948431D01*
X108527930Y-88948431D02*
X108878117Y-88598245D01*
X108662618Y-87682373D02*
X108716492Y-87628499D01*
X108716492Y-87628499D02*
X108797305Y-87601561D01*
X108797305Y-87601561D02*
X108851179Y-87601561D01*
X108851179Y-87601561D02*
X108931992Y-87628499D01*
X108931992Y-87628499D02*
X109066679Y-87709311D01*
X109066679Y-87709311D02*
X109201366Y-87843998D01*
X109201366Y-87843998D02*
X109282178Y-87978685D01*
X109282178Y-87978685D02*
X109309115Y-88059497D01*
X109309115Y-88059497D02*
X109309115Y-88113372D01*
X109309115Y-88113372D02*
X109282178Y-88194184D01*
X109282178Y-88194184D02*
X109228303Y-88248059D01*
X109228303Y-88248059D02*
X109147491Y-88274996D01*
X109147491Y-88274996D02*
X109093616Y-88274996D01*
X109093616Y-88274996D02*
X109012804Y-88248059D01*
X109012804Y-88248059D02*
X108878117Y-88167247D01*
X108878117Y-88167247D02*
X108743430Y-88032560D01*
X108743430Y-88032560D02*
X108662618Y-87897873D01*
X108662618Y-87897873D02*
X108635680Y-87817060D01*
X108635680Y-87817060D02*
X108635680Y-87763186D01*
X108635680Y-87763186D02*
X108662618Y-87682373D01*
X81596435Y-58468431D02*
X81515623Y-58495368D01*
X81515623Y-58495368D02*
X81434811Y-58576180D01*
X81434811Y-58576180D02*
X81380936Y-58683930D01*
X81380936Y-58683930D02*
X81380936Y-58791680D01*
X81380936Y-58791680D02*
X81407873Y-58872492D01*
X81407873Y-58872492D02*
X81488685Y-59007179D01*
X81488685Y-59007179D02*
X81569498Y-59087991D01*
X81569498Y-59087991D02*
X81704185Y-59168803D01*
X81704185Y-59168803D02*
X81784997Y-59195741D01*
X81784997Y-59195741D02*
X81892746Y-59195741D01*
X81892746Y-59195741D02*
X82000496Y-59141866D01*
X82000496Y-59141866D02*
X82054371Y-59087991D01*
X82054371Y-59087991D02*
X82108246Y-58980241D01*
X82108246Y-58980241D02*
X82108246Y-58926367D01*
X82108246Y-58926367D02*
X81919684Y-58737805D01*
X81919684Y-58737805D02*
X81811934Y-58845554D01*
X82404557Y-58737805D02*
X81838872Y-58172119D01*
X81838872Y-58172119D02*
X82727806Y-58414556D01*
X82727806Y-58414556D02*
X82162120Y-57848871D01*
X82997180Y-58145182D02*
X82431494Y-57579497D01*
X82431494Y-57579497D02*
X82566181Y-57444810D01*
X82566181Y-57444810D02*
X82673931Y-57390935D01*
X82673931Y-57390935D02*
X82781680Y-57390935D01*
X82781680Y-57390935D02*
X82862493Y-57417872D01*
X82862493Y-57417872D02*
X82997180Y-57498685D01*
X82997180Y-57498685D02*
X83077992Y-57579497D01*
X83077992Y-57579497D02*
X83158804Y-57714184D01*
X83158804Y-57714184D02*
X83185741Y-57794996D01*
X83185741Y-57794996D02*
X83185741Y-57902746D01*
X83185741Y-57902746D02*
X83131867Y-58010495D01*
X83131867Y-58010495D02*
X82997180Y-58145182D01*
X81596435Y-96568431D02*
X81515623Y-96595368D01*
X81515623Y-96595368D02*
X81434811Y-96676180D01*
X81434811Y-96676180D02*
X81380936Y-96783930D01*
X81380936Y-96783930D02*
X81380936Y-96891680D01*
X81380936Y-96891680D02*
X81407873Y-96972492D01*
X81407873Y-96972492D02*
X81488685Y-97107179D01*
X81488685Y-97107179D02*
X81569498Y-97187991D01*
X81569498Y-97187991D02*
X81704185Y-97268803D01*
X81704185Y-97268803D02*
X81784997Y-97295741D01*
X81784997Y-97295741D02*
X81892746Y-97295741D01*
X81892746Y-97295741D02*
X82000496Y-97241866D01*
X82000496Y-97241866D02*
X82054371Y-97187991D01*
X82054371Y-97187991D02*
X82108246Y-97080241D01*
X82108246Y-97080241D02*
X82108246Y-97026367D01*
X82108246Y-97026367D02*
X81919684Y-96837805D01*
X81919684Y-96837805D02*
X81811934Y-96945554D01*
X82404557Y-96837805D02*
X81838872Y-96272119D01*
X81838872Y-96272119D02*
X82727806Y-96514556D01*
X82727806Y-96514556D02*
X82162120Y-95948871D01*
X82997180Y-96245182D02*
X82431494Y-95679497D01*
X82431494Y-95679497D02*
X82566181Y-95544810D01*
X82566181Y-95544810D02*
X82673931Y-95490935D01*
X82673931Y-95490935D02*
X82781680Y-95490935D01*
X82781680Y-95490935D02*
X82862493Y-95517872D01*
X82862493Y-95517872D02*
X82997180Y-95598685D01*
X82997180Y-95598685D02*
X83077992Y-95679497D01*
X83077992Y-95679497D02*
X83158804Y-95814184D01*
X83158804Y-95814184D02*
X83185741Y-95894996D01*
X83185741Y-95894996D02*
X83185741Y-96002746D01*
X83185741Y-96002746D02*
X83131867Y-96110495D01*
X83131867Y-96110495D02*
X82997180Y-96245182D01*
X81623372Y-63521494D02*
X81542560Y-63548431D01*
X81542560Y-63548431D02*
X81461748Y-63629243D01*
X81461748Y-63629243D02*
X81407873Y-63736993D01*
X81407873Y-63736993D02*
X81407873Y-63844742D01*
X81407873Y-63844742D02*
X81434810Y-63925555D01*
X81434810Y-63925555D02*
X81515623Y-64060242D01*
X81515623Y-64060242D02*
X81596435Y-64141054D01*
X81596435Y-64141054D02*
X81731122Y-64221866D01*
X81731122Y-64221866D02*
X81811934Y-64248803D01*
X81811934Y-64248803D02*
X81919684Y-64248803D01*
X81919684Y-64248803D02*
X82027433Y-64194929D01*
X82027433Y-64194929D02*
X82081308Y-64141054D01*
X82081308Y-64141054D02*
X82135183Y-64033304D01*
X82135183Y-64033304D02*
X82135183Y-63979429D01*
X82135183Y-63979429D02*
X81946621Y-63790868D01*
X81946621Y-63790868D02*
X81838871Y-63898617D01*
X82431494Y-63790868D02*
X81865809Y-63225182D01*
X81865809Y-63225182D02*
X82081308Y-63009683D01*
X82081308Y-63009683D02*
X82162120Y-62982746D01*
X82162120Y-62982746D02*
X82215995Y-62982746D01*
X82215995Y-62982746D02*
X82296807Y-63009683D01*
X82296807Y-63009683D02*
X82377619Y-63090495D01*
X82377619Y-63090495D02*
X82404557Y-63171307D01*
X82404557Y-63171307D02*
X82404557Y-63225182D01*
X82404557Y-63225182D02*
X82377619Y-63305994D01*
X82377619Y-63305994D02*
X82162120Y-63521494D01*
X82377619Y-62713372D02*
X82727806Y-62363185D01*
X82727806Y-62363185D02*
X82754743Y-62767246D01*
X82754743Y-62767246D02*
X82835555Y-62686434D01*
X82835555Y-62686434D02*
X82916367Y-62659497D01*
X82916367Y-62659497D02*
X82970242Y-62659497D01*
X82970242Y-62659497D02*
X83051054Y-62686434D01*
X83051054Y-62686434D02*
X83185741Y-62821121D01*
X83185741Y-62821121D02*
X83212679Y-62901933D01*
X83212679Y-62901933D02*
X83212679Y-62955808D01*
X83212679Y-62955808D02*
X83185741Y-63036620D01*
X83185741Y-63036620D02*
X83024117Y-63198245D01*
X83024117Y-63198245D02*
X82943305Y-63225182D01*
X82943305Y-63225182D02*
X82889430Y-63225182D01*
X81623372Y-53361494D02*
X81542560Y-53388431D01*
X81542560Y-53388431D02*
X81461748Y-53469243D01*
X81461748Y-53469243D02*
X81407873Y-53576993D01*
X81407873Y-53576993D02*
X81407873Y-53684742D01*
X81407873Y-53684742D02*
X81434810Y-53765555D01*
X81434810Y-53765555D02*
X81515623Y-53900242D01*
X81515623Y-53900242D02*
X81596435Y-53981054D01*
X81596435Y-53981054D02*
X81731122Y-54061866D01*
X81731122Y-54061866D02*
X81811934Y-54088803D01*
X81811934Y-54088803D02*
X81919684Y-54088803D01*
X81919684Y-54088803D02*
X82027433Y-54034929D01*
X82027433Y-54034929D02*
X82081308Y-53981054D01*
X82081308Y-53981054D02*
X82135183Y-53873304D01*
X82135183Y-53873304D02*
X82135183Y-53819429D01*
X82135183Y-53819429D02*
X81946621Y-53630868D01*
X81946621Y-53630868D02*
X81838871Y-53738617D01*
X82431494Y-53630868D02*
X81865809Y-53065182D01*
X81865809Y-53065182D02*
X82081308Y-52849683D01*
X82081308Y-52849683D02*
X82162120Y-52822746D01*
X82162120Y-52822746D02*
X82215995Y-52822746D01*
X82215995Y-52822746D02*
X82296807Y-52849683D01*
X82296807Y-52849683D02*
X82377619Y-52930495D01*
X82377619Y-52930495D02*
X82404557Y-53011307D01*
X82404557Y-53011307D02*
X82404557Y-53065182D01*
X82404557Y-53065182D02*
X82377619Y-53145994D01*
X82377619Y-53145994D02*
X82162120Y-53361494D01*
X82539244Y-52391747D02*
X82593119Y-52337872D01*
X82593119Y-52337872D02*
X82673931Y-52310935D01*
X82673931Y-52310935D02*
X82727806Y-52310935D01*
X82727806Y-52310935D02*
X82808618Y-52337872D01*
X82808618Y-52337872D02*
X82943305Y-52418685D01*
X82943305Y-52418685D02*
X83077992Y-52553372D01*
X83077992Y-52553372D02*
X83158804Y-52688059D01*
X83158804Y-52688059D02*
X83185741Y-52768871D01*
X83185741Y-52768871D02*
X83185741Y-52822746D01*
X83185741Y-52822746D02*
X83158804Y-52903558D01*
X83158804Y-52903558D02*
X83104929Y-52957433D01*
X83104929Y-52957433D02*
X83024117Y-52984370D01*
X83024117Y-52984370D02*
X82970242Y-52984370D01*
X82970242Y-52984370D02*
X82889430Y-52957433D01*
X82889430Y-52957433D02*
X82754743Y-52876620D01*
X82754743Y-52876620D02*
X82620056Y-52741933D01*
X82620056Y-52741933D02*
X82539244Y-52607246D01*
X82539244Y-52607246D02*
X82512306Y-52526434D01*
X82512306Y-52526434D02*
X82512306Y-52472559D01*
X82512306Y-52472559D02*
X82539244Y-52391747D01*
X81623372Y-68601494D02*
X81542560Y-68628431D01*
X81542560Y-68628431D02*
X81461748Y-68709243D01*
X81461748Y-68709243D02*
X81407873Y-68816993D01*
X81407873Y-68816993D02*
X81407873Y-68924742D01*
X81407873Y-68924742D02*
X81434810Y-69005555D01*
X81434810Y-69005555D02*
X81515623Y-69140242D01*
X81515623Y-69140242D02*
X81596435Y-69221054D01*
X81596435Y-69221054D02*
X81731122Y-69301866D01*
X81731122Y-69301866D02*
X81811934Y-69328803D01*
X81811934Y-69328803D02*
X81919684Y-69328803D01*
X81919684Y-69328803D02*
X82027433Y-69274929D01*
X82027433Y-69274929D02*
X82081308Y-69221054D01*
X82081308Y-69221054D02*
X82135183Y-69113304D01*
X82135183Y-69113304D02*
X82135183Y-69059429D01*
X82135183Y-69059429D02*
X81946621Y-68870868D01*
X81946621Y-68870868D02*
X81838871Y-68978617D01*
X82431494Y-68870868D02*
X81865809Y-68305182D01*
X81865809Y-68305182D02*
X82081308Y-68089683D01*
X82081308Y-68089683D02*
X82162120Y-68062746D01*
X82162120Y-68062746D02*
X82215995Y-68062746D01*
X82215995Y-68062746D02*
X82296807Y-68089683D01*
X82296807Y-68089683D02*
X82377619Y-68170495D01*
X82377619Y-68170495D02*
X82404557Y-68251307D01*
X82404557Y-68251307D02*
X82404557Y-68305182D01*
X82404557Y-68305182D02*
X82377619Y-68385994D01*
X82377619Y-68385994D02*
X82162120Y-68601494D01*
X82700868Y-67470123D02*
X82431494Y-67739497D01*
X82431494Y-67739497D02*
X82673931Y-68035808D01*
X82673931Y-68035808D02*
X82673931Y-67981933D01*
X82673931Y-67981933D02*
X82700868Y-67901121D01*
X82700868Y-67901121D02*
X82835555Y-67766434D01*
X82835555Y-67766434D02*
X82916367Y-67739497D01*
X82916367Y-67739497D02*
X82970242Y-67739497D01*
X82970242Y-67739497D02*
X83051054Y-67766434D01*
X83051054Y-67766434D02*
X83185741Y-67901121D01*
X83185741Y-67901121D02*
X83212679Y-67981933D01*
X83212679Y-67981933D02*
X83212679Y-68035808D01*
X83212679Y-68035808D02*
X83185741Y-68116620D01*
X83185741Y-68116620D02*
X83051054Y-68251307D01*
X83051054Y-68251307D02*
X82970242Y-68278245D01*
X82970242Y-68278245D02*
X82916367Y-68278245D01*
X99014761Y-103894200D02*
X99129047Y-103932295D01*
X99129047Y-103932295D02*
X99319523Y-103932295D01*
X99319523Y-103932295D02*
X99395714Y-103894200D01*
X99395714Y-103894200D02*
X99433809Y-103856104D01*
X99433809Y-103856104D02*
X99471904Y-103779914D01*
X99471904Y-103779914D02*
X99471904Y-103703723D01*
X99471904Y-103703723D02*
X99433809Y-103627533D01*
X99433809Y-103627533D02*
X99395714Y-103589438D01*
X99395714Y-103589438D02*
X99319523Y-103551342D01*
X99319523Y-103551342D02*
X99167142Y-103513247D01*
X99167142Y-103513247D02*
X99090952Y-103475152D01*
X99090952Y-103475152D02*
X99052857Y-103437057D01*
X99052857Y-103437057D02*
X99014761Y-103360866D01*
X99014761Y-103360866D02*
X99014761Y-103284676D01*
X99014761Y-103284676D02*
X99052857Y-103208485D01*
X99052857Y-103208485D02*
X99090952Y-103170390D01*
X99090952Y-103170390D02*
X99167142Y-103132295D01*
X99167142Y-103132295D02*
X99357619Y-103132295D01*
X99357619Y-103132295D02*
X99471904Y-103170390D01*
X99738571Y-103132295D02*
X99929047Y-103932295D01*
X99929047Y-103932295D02*
X100081428Y-103360866D01*
X100081428Y-103360866D02*
X100233809Y-103932295D01*
X100233809Y-103932295D02*
X100424286Y-103132295D01*
X100729048Y-103932295D02*
X100729048Y-103132295D01*
X100729048Y-103132295D02*
X100919524Y-103132295D01*
X100919524Y-103132295D02*
X101033810Y-103170390D01*
X101033810Y-103170390D02*
X101110000Y-103246580D01*
X101110000Y-103246580D02*
X101148095Y-103322771D01*
X101148095Y-103322771D02*
X101186191Y-103475152D01*
X101186191Y-103475152D02*
X101186191Y-103589438D01*
X101186191Y-103589438D02*
X101148095Y-103741819D01*
X101148095Y-103741819D02*
X101110000Y-103818009D01*
X101110000Y-103818009D02*
X101033810Y-103894200D01*
X101033810Y-103894200D02*
X100919524Y-103932295D01*
X100919524Y-103932295D02*
X100729048Y-103932295D01*
X101529048Y-103932295D02*
X101529048Y-103132295D01*
X102062381Y-103132295D02*
X102214762Y-103132295D01*
X102214762Y-103132295D02*
X102290952Y-103170390D01*
X102290952Y-103170390D02*
X102367143Y-103246580D01*
X102367143Y-103246580D02*
X102405238Y-103398961D01*
X102405238Y-103398961D02*
X102405238Y-103665628D01*
X102405238Y-103665628D02*
X102367143Y-103818009D01*
X102367143Y-103818009D02*
X102290952Y-103894200D01*
X102290952Y-103894200D02*
X102214762Y-103932295D01*
X102214762Y-103932295D02*
X102062381Y-103932295D01*
X102062381Y-103932295D02*
X101986190Y-103894200D01*
X101986190Y-103894200D02*
X101910000Y-103818009D01*
X101910000Y-103818009D02*
X101871904Y-103665628D01*
X101871904Y-103665628D02*
X101871904Y-103398961D01*
X101871904Y-103398961D02*
X101910000Y-103246580D01*
X101910000Y-103246580D02*
X101986190Y-103170390D01*
X101986190Y-103170390D02*
X102062381Y-103132295D01*
X81623372Y-81301494D02*
X81542560Y-81328431D01*
X81542560Y-81328431D02*
X81461748Y-81409243D01*
X81461748Y-81409243D02*
X81407873Y-81516993D01*
X81407873Y-81516993D02*
X81407873Y-81624742D01*
X81407873Y-81624742D02*
X81434810Y-81705555D01*
X81434810Y-81705555D02*
X81515623Y-81840242D01*
X81515623Y-81840242D02*
X81596435Y-81921054D01*
X81596435Y-81921054D02*
X81731122Y-82001866D01*
X81731122Y-82001866D02*
X81811934Y-82028803D01*
X81811934Y-82028803D02*
X81919684Y-82028803D01*
X81919684Y-82028803D02*
X82027433Y-81974929D01*
X82027433Y-81974929D02*
X82081308Y-81921054D01*
X82081308Y-81921054D02*
X82135183Y-81813304D01*
X82135183Y-81813304D02*
X82135183Y-81759429D01*
X82135183Y-81759429D02*
X81946621Y-81570868D01*
X81946621Y-81570868D02*
X81838871Y-81678617D01*
X82431494Y-81570868D02*
X81865809Y-81005182D01*
X81865809Y-81005182D02*
X82081308Y-80789683D01*
X82081308Y-80789683D02*
X82162120Y-80762746D01*
X82162120Y-80762746D02*
X82215995Y-80762746D01*
X82215995Y-80762746D02*
X82296807Y-80789683D01*
X82296807Y-80789683D02*
X82377619Y-80870495D01*
X82377619Y-80870495D02*
X82404557Y-80951307D01*
X82404557Y-80951307D02*
X82404557Y-81005182D01*
X82404557Y-81005182D02*
X82377619Y-81085994D01*
X82377619Y-81085994D02*
X82162120Y-81301494D01*
X83024117Y-80978245D02*
X83131867Y-80870495D01*
X83131867Y-80870495D02*
X83158804Y-80789683D01*
X83158804Y-80789683D02*
X83158804Y-80735808D01*
X83158804Y-80735808D02*
X83131867Y-80601121D01*
X83131867Y-80601121D02*
X83051054Y-80466434D01*
X83051054Y-80466434D02*
X82835555Y-80250935D01*
X82835555Y-80250935D02*
X82754743Y-80223998D01*
X82754743Y-80223998D02*
X82700868Y-80223998D01*
X82700868Y-80223998D02*
X82620056Y-80250935D01*
X82620056Y-80250935D02*
X82512306Y-80358685D01*
X82512306Y-80358685D02*
X82485369Y-80439497D01*
X82485369Y-80439497D02*
X82485369Y-80493372D01*
X82485369Y-80493372D02*
X82512306Y-80574184D01*
X82512306Y-80574184D02*
X82646993Y-80708871D01*
X82646993Y-80708871D02*
X82727806Y-80735808D01*
X82727806Y-80735808D02*
X82781680Y-80735808D01*
X82781680Y-80735808D02*
X82862493Y-80708871D01*
X82862493Y-80708871D02*
X82970242Y-80601121D01*
X82970242Y-80601121D02*
X82997180Y-80520309D01*
X82997180Y-80520309D02*
X82997180Y-80466434D01*
X82997180Y-80466434D02*
X82970242Y-80385622D01*
X107043998Y-68890868D02*
X106963185Y-68917805D01*
X106963185Y-68917805D02*
X106882373Y-68998618D01*
X106882373Y-68998618D02*
X106828498Y-69106367D01*
X106828498Y-69106367D02*
X106828498Y-69214117D01*
X106828498Y-69214117D02*
X106855436Y-69294929D01*
X106855436Y-69294929D02*
X106936248Y-69429616D01*
X106936248Y-69429616D02*
X107017060Y-69510428D01*
X107017060Y-69510428D02*
X107151747Y-69591241D01*
X107151747Y-69591241D02*
X107232560Y-69618178D01*
X107232560Y-69618178D02*
X107340309Y-69618178D01*
X107340309Y-69618178D02*
X107448059Y-69564303D01*
X107448059Y-69564303D02*
X107501934Y-69510428D01*
X107501934Y-69510428D02*
X107555808Y-69402679D01*
X107555808Y-69402679D02*
X107555808Y-69348804D01*
X107555808Y-69348804D02*
X107367247Y-69160242D01*
X107367247Y-69160242D02*
X107259497Y-69267992D01*
X107852120Y-69160242D02*
X107286434Y-68594557D01*
X107286434Y-68594557D02*
X107501934Y-68379057D01*
X107501934Y-68379057D02*
X107582746Y-68352120D01*
X107582746Y-68352120D02*
X107636621Y-68352120D01*
X107636621Y-68352120D02*
X107717433Y-68379057D01*
X107717433Y-68379057D02*
X107798245Y-68459870D01*
X107798245Y-68459870D02*
X107825182Y-68540682D01*
X107825182Y-68540682D02*
X107825182Y-68594557D01*
X107825182Y-68594557D02*
X107798245Y-68675369D01*
X107798245Y-68675369D02*
X107582746Y-68890868D01*
X107879057Y-68109683D02*
X107879057Y-68055809D01*
X107879057Y-68055809D02*
X107905995Y-67974996D01*
X107905995Y-67974996D02*
X108040682Y-67840309D01*
X108040682Y-67840309D02*
X108121494Y-67813372D01*
X108121494Y-67813372D02*
X108175369Y-67813372D01*
X108175369Y-67813372D02*
X108256181Y-67840309D01*
X108256181Y-67840309D02*
X108310056Y-67894184D01*
X108310056Y-67894184D02*
X108363930Y-68001934D01*
X108363930Y-68001934D02*
X108363930Y-68648431D01*
X108363930Y-68648431D02*
X108714117Y-68298245D01*
X108714117Y-67651747D02*
X108633305Y-67678685D01*
X108633305Y-67678685D02*
X108579430Y-67678685D01*
X108579430Y-67678685D02*
X108498618Y-67651747D01*
X108498618Y-67651747D02*
X108471680Y-67624810D01*
X108471680Y-67624810D02*
X108444743Y-67543998D01*
X108444743Y-67543998D02*
X108444743Y-67490123D01*
X108444743Y-67490123D02*
X108471680Y-67409311D01*
X108471680Y-67409311D02*
X108579430Y-67301561D01*
X108579430Y-67301561D02*
X108660242Y-67274624D01*
X108660242Y-67274624D02*
X108714117Y-67274624D01*
X108714117Y-67274624D02*
X108794929Y-67301561D01*
X108794929Y-67301561D02*
X108821866Y-67328499D01*
X108821866Y-67328499D02*
X108848804Y-67409311D01*
X108848804Y-67409311D02*
X108848804Y-67463186D01*
X108848804Y-67463186D02*
X108821866Y-67543998D01*
X108821866Y-67543998D02*
X108714117Y-67651747D01*
X108714117Y-67651747D02*
X108687179Y-67732560D01*
X108687179Y-67732560D02*
X108687179Y-67786434D01*
X108687179Y-67786434D02*
X108714117Y-67867247D01*
X108714117Y-67867247D02*
X108821866Y-67974996D01*
X108821866Y-67974996D02*
X108902679Y-68001934D01*
X108902679Y-68001934D02*
X108956553Y-68001934D01*
X108956553Y-68001934D02*
X109037366Y-67974996D01*
X109037366Y-67974996D02*
X109145115Y-67867247D01*
X109145115Y-67867247D02*
X109172053Y-67786434D01*
X109172053Y-67786434D02*
X109172053Y-67732560D01*
X109172053Y-67732560D02*
X109145115Y-67651747D01*
X109145115Y-67651747D02*
X109037366Y-67543998D01*
X109037366Y-67543998D02*
X108956553Y-67517060D01*
X108956553Y-67517060D02*
X108902679Y-67517060D01*
X108902679Y-67517060D02*
X108821866Y-67543998D01*
X81596435Y-71168431D02*
X81515623Y-71195368D01*
X81515623Y-71195368D02*
X81434811Y-71276180D01*
X81434811Y-71276180D02*
X81380936Y-71383930D01*
X81380936Y-71383930D02*
X81380936Y-71491680D01*
X81380936Y-71491680D02*
X81407873Y-71572492D01*
X81407873Y-71572492D02*
X81488685Y-71707179D01*
X81488685Y-71707179D02*
X81569498Y-71787991D01*
X81569498Y-71787991D02*
X81704185Y-71868803D01*
X81704185Y-71868803D02*
X81784997Y-71895741D01*
X81784997Y-71895741D02*
X81892746Y-71895741D01*
X81892746Y-71895741D02*
X82000496Y-71841866D01*
X82000496Y-71841866D02*
X82054371Y-71787991D01*
X82054371Y-71787991D02*
X82108246Y-71680241D01*
X82108246Y-71680241D02*
X82108246Y-71626367D01*
X82108246Y-71626367D02*
X81919684Y-71437805D01*
X81919684Y-71437805D02*
X81811934Y-71545554D01*
X82404557Y-71437805D02*
X81838872Y-70872119D01*
X81838872Y-70872119D02*
X82727806Y-71114556D01*
X82727806Y-71114556D02*
X82162120Y-70548871D01*
X82997180Y-70845182D02*
X82431494Y-70279497D01*
X82431494Y-70279497D02*
X82566181Y-70144810D01*
X82566181Y-70144810D02*
X82673931Y-70090935D01*
X82673931Y-70090935D02*
X82781680Y-70090935D01*
X82781680Y-70090935D02*
X82862493Y-70117872D01*
X82862493Y-70117872D02*
X82997180Y-70198685D01*
X82997180Y-70198685D02*
X83077992Y-70279497D01*
X83077992Y-70279497D02*
X83158804Y-70414184D01*
X83158804Y-70414184D02*
X83185741Y-70494996D01*
X83185741Y-70494996D02*
X83185741Y-70602746D01*
X83185741Y-70602746D02*
X83131867Y-70710495D01*
X83131867Y-70710495D02*
X82997180Y-70845182D01*
X107196435Y-83868431D02*
X107115623Y-83895368D01*
X107115623Y-83895368D02*
X107034811Y-83976180D01*
X107034811Y-83976180D02*
X106980936Y-84083930D01*
X106980936Y-84083930D02*
X106980936Y-84191680D01*
X106980936Y-84191680D02*
X107007873Y-84272492D01*
X107007873Y-84272492D02*
X107088685Y-84407179D01*
X107088685Y-84407179D02*
X107169498Y-84487991D01*
X107169498Y-84487991D02*
X107304185Y-84568803D01*
X107304185Y-84568803D02*
X107384997Y-84595741D01*
X107384997Y-84595741D02*
X107492746Y-84595741D01*
X107492746Y-84595741D02*
X107600496Y-84541866D01*
X107600496Y-84541866D02*
X107654371Y-84487991D01*
X107654371Y-84487991D02*
X107708246Y-84380241D01*
X107708246Y-84380241D02*
X107708246Y-84326367D01*
X107708246Y-84326367D02*
X107519684Y-84137805D01*
X107519684Y-84137805D02*
X107411934Y-84245554D01*
X108004557Y-84137805D02*
X107438872Y-83572119D01*
X107438872Y-83572119D02*
X108327806Y-83814556D01*
X108327806Y-83814556D02*
X107762120Y-83248871D01*
X108597180Y-83545182D02*
X108031494Y-82979497D01*
X108031494Y-82979497D02*
X108166181Y-82844810D01*
X108166181Y-82844810D02*
X108273931Y-82790935D01*
X108273931Y-82790935D02*
X108381680Y-82790935D01*
X108381680Y-82790935D02*
X108462493Y-82817872D01*
X108462493Y-82817872D02*
X108597180Y-82898685D01*
X108597180Y-82898685D02*
X108677992Y-82979497D01*
X108677992Y-82979497D02*
X108758804Y-83114184D01*
X108758804Y-83114184D02*
X108785741Y-83194996D01*
X108785741Y-83194996D02*
X108785741Y-83302746D01*
X108785741Y-83302746D02*
X108731867Y-83410495D01*
X108731867Y-83410495D02*
X108597180Y-83545182D01*
X107207998Y-101890868D02*
X107127185Y-101917805D01*
X107127185Y-101917805D02*
X107046373Y-101998618D01*
X107046373Y-101998618D02*
X106992498Y-102106367D01*
X106992498Y-102106367D02*
X106992498Y-102214117D01*
X106992498Y-102214117D02*
X107019436Y-102294929D01*
X107019436Y-102294929D02*
X107100248Y-102429616D01*
X107100248Y-102429616D02*
X107181060Y-102510428D01*
X107181060Y-102510428D02*
X107315747Y-102591241D01*
X107315747Y-102591241D02*
X107396560Y-102618178D01*
X107396560Y-102618178D02*
X107504309Y-102618178D01*
X107504309Y-102618178D02*
X107612059Y-102564303D01*
X107612059Y-102564303D02*
X107665934Y-102510428D01*
X107665934Y-102510428D02*
X107719808Y-102402679D01*
X107719808Y-102402679D02*
X107719808Y-102348804D01*
X107719808Y-102348804D02*
X107531247Y-102160242D01*
X107531247Y-102160242D02*
X107423497Y-102267992D01*
X108016120Y-102160242D02*
X107450434Y-101594557D01*
X107450434Y-101594557D02*
X107665934Y-101379057D01*
X107665934Y-101379057D02*
X107746746Y-101352120D01*
X107746746Y-101352120D02*
X107800621Y-101352120D01*
X107800621Y-101352120D02*
X107881433Y-101379057D01*
X107881433Y-101379057D02*
X107962245Y-101459870D01*
X107962245Y-101459870D02*
X107989182Y-101540682D01*
X107989182Y-101540682D02*
X107989182Y-101594557D01*
X107989182Y-101594557D02*
X107962245Y-101675369D01*
X107962245Y-101675369D02*
X107746746Y-101890868D01*
X108878117Y-101298245D02*
X108554868Y-101621494D01*
X108716492Y-101459870D02*
X108150807Y-100894184D01*
X108150807Y-100894184D02*
X108177744Y-101028871D01*
X108177744Y-101028871D02*
X108177744Y-101136621D01*
X108177744Y-101136621D02*
X108150807Y-101217433D01*
X108797305Y-100247686D02*
X108689555Y-100355436D01*
X108689555Y-100355436D02*
X108662618Y-100436248D01*
X108662618Y-100436248D02*
X108662618Y-100490123D01*
X108662618Y-100490123D02*
X108689555Y-100624810D01*
X108689555Y-100624810D02*
X108770367Y-100759497D01*
X108770367Y-100759497D02*
X108985866Y-100974996D01*
X108985866Y-100974996D02*
X109066679Y-101001934D01*
X109066679Y-101001934D02*
X109120553Y-101001934D01*
X109120553Y-101001934D02*
X109201366Y-100974996D01*
X109201366Y-100974996D02*
X109309115Y-100867247D01*
X109309115Y-100867247D02*
X109336053Y-100786434D01*
X109336053Y-100786434D02*
X109336053Y-100732560D01*
X109336053Y-100732560D02*
X109309115Y-100651747D01*
X109309115Y-100651747D02*
X109174428Y-100517060D01*
X109174428Y-100517060D02*
X109093616Y-100490123D01*
X109093616Y-100490123D02*
X109039741Y-100490123D01*
X109039741Y-100490123D02*
X108958929Y-100517060D01*
X108958929Y-100517060D02*
X108851179Y-100624810D01*
X108851179Y-100624810D02*
X108824242Y-100705622D01*
X108824242Y-100705622D02*
X108824242Y-100759497D01*
X108824242Y-100759497D02*
X108851179Y-100840309D01*
X81623372Y-78761494D02*
X81542560Y-78788431D01*
X81542560Y-78788431D02*
X81461748Y-78869243D01*
X81461748Y-78869243D02*
X81407873Y-78976993D01*
X81407873Y-78976993D02*
X81407873Y-79084742D01*
X81407873Y-79084742D02*
X81434810Y-79165555D01*
X81434810Y-79165555D02*
X81515623Y-79300242D01*
X81515623Y-79300242D02*
X81596435Y-79381054D01*
X81596435Y-79381054D02*
X81731122Y-79461866D01*
X81731122Y-79461866D02*
X81811934Y-79488803D01*
X81811934Y-79488803D02*
X81919684Y-79488803D01*
X81919684Y-79488803D02*
X82027433Y-79434929D01*
X82027433Y-79434929D02*
X82081308Y-79381054D01*
X82081308Y-79381054D02*
X82135183Y-79273304D01*
X82135183Y-79273304D02*
X82135183Y-79219429D01*
X82135183Y-79219429D02*
X81946621Y-79030868D01*
X81946621Y-79030868D02*
X81838871Y-79138617D01*
X82431494Y-79030868D02*
X81865809Y-78465182D01*
X81865809Y-78465182D02*
X82081308Y-78249683D01*
X82081308Y-78249683D02*
X82162120Y-78222746D01*
X82162120Y-78222746D02*
X82215995Y-78222746D01*
X82215995Y-78222746D02*
X82296807Y-78249683D01*
X82296807Y-78249683D02*
X82377619Y-78330495D01*
X82377619Y-78330495D02*
X82404557Y-78411307D01*
X82404557Y-78411307D02*
X82404557Y-78465182D01*
X82404557Y-78465182D02*
X82377619Y-78545994D01*
X82377619Y-78545994D02*
X82162120Y-78761494D01*
X82754743Y-78061121D02*
X82673931Y-78088059D01*
X82673931Y-78088059D02*
X82620056Y-78088059D01*
X82620056Y-78088059D02*
X82539244Y-78061121D01*
X82539244Y-78061121D02*
X82512306Y-78034184D01*
X82512306Y-78034184D02*
X82485369Y-77953372D01*
X82485369Y-77953372D02*
X82485369Y-77899497D01*
X82485369Y-77899497D02*
X82512306Y-77818685D01*
X82512306Y-77818685D02*
X82620056Y-77710935D01*
X82620056Y-77710935D02*
X82700868Y-77683998D01*
X82700868Y-77683998D02*
X82754743Y-77683998D01*
X82754743Y-77683998D02*
X82835555Y-77710935D01*
X82835555Y-77710935D02*
X82862493Y-77737872D01*
X82862493Y-77737872D02*
X82889430Y-77818685D01*
X82889430Y-77818685D02*
X82889430Y-77872559D01*
X82889430Y-77872559D02*
X82862493Y-77953372D01*
X82862493Y-77953372D02*
X82754743Y-78061121D01*
X82754743Y-78061121D02*
X82727806Y-78141933D01*
X82727806Y-78141933D02*
X82727806Y-78195808D01*
X82727806Y-78195808D02*
X82754743Y-78276620D01*
X82754743Y-78276620D02*
X82862493Y-78384370D01*
X82862493Y-78384370D02*
X82943305Y-78411307D01*
X82943305Y-78411307D02*
X82997180Y-78411307D01*
X82997180Y-78411307D02*
X83077992Y-78384370D01*
X83077992Y-78384370D02*
X83185741Y-78276620D01*
X83185741Y-78276620D02*
X83212679Y-78195808D01*
X83212679Y-78195808D02*
X83212679Y-78141933D01*
X83212679Y-78141933D02*
X83185741Y-78061121D01*
X83185741Y-78061121D02*
X83077992Y-77953372D01*
X83077992Y-77953372D02*
X82997180Y-77926434D01*
X82997180Y-77926434D02*
X82943305Y-77926434D01*
X82943305Y-77926434D02*
X82862493Y-77953372D01*
X107000123Y-63860868D02*
X107350309Y-63510682D01*
X107350309Y-63510682D02*
X107377247Y-63914743D01*
X107377247Y-63914743D02*
X107458059Y-63833931D01*
X107458059Y-63833931D02*
X107538871Y-63806993D01*
X107538871Y-63806993D02*
X107592746Y-63806993D01*
X107592746Y-63806993D02*
X107673558Y-63833931D01*
X107673558Y-63833931D02*
X107808245Y-63968618D01*
X107808245Y-63968618D02*
X107835182Y-64049430D01*
X107835182Y-64049430D02*
X107835182Y-64103305D01*
X107835182Y-64103305D02*
X107808245Y-64184117D01*
X107808245Y-64184117D02*
X107646621Y-64345741D01*
X107646621Y-64345741D02*
X107565808Y-64372679D01*
X107565808Y-64372679D02*
X107511934Y-64372679D01*
X107511934Y-63349057D02*
X108266181Y-63726181D01*
X108266181Y-63726181D02*
X107889057Y-62971934D01*
X108023744Y-62837247D02*
X108373930Y-62487061D01*
X108373930Y-62487061D02*
X108400868Y-62891122D01*
X108400868Y-62891122D02*
X108481680Y-62810309D01*
X108481680Y-62810309D02*
X108562492Y-62783372D01*
X108562492Y-62783372D02*
X108616367Y-62783372D01*
X108616367Y-62783372D02*
X108697179Y-62810309D01*
X108697179Y-62810309D02*
X108831866Y-62944996D01*
X108831866Y-62944996D02*
X108858804Y-63025809D01*
X108858804Y-63025809D02*
X108858804Y-63079683D01*
X108858804Y-63079683D02*
X108831866Y-63160496D01*
X108831866Y-63160496D02*
X108670242Y-63322120D01*
X108670242Y-63322120D02*
X108589430Y-63349057D01*
X108589430Y-63349057D02*
X108535555Y-63349057D01*
X106722407Y-61658584D02*
X107072593Y-61308398D01*
X107072593Y-61308398D02*
X107099531Y-61712459D01*
X107099531Y-61712459D02*
X107180343Y-61631646D01*
X107180343Y-61631646D02*
X107261155Y-61604709D01*
X107261155Y-61604709D02*
X107315030Y-61604709D01*
X107315030Y-61604709D02*
X107395842Y-61631646D01*
X107395842Y-61631646D02*
X107530529Y-61766333D01*
X107530529Y-61766333D02*
X107557467Y-61847146D01*
X107557467Y-61847146D02*
X107557467Y-61901020D01*
X107557467Y-61901020D02*
X107530529Y-61981833D01*
X107530529Y-61981833D02*
X107368905Y-62143457D01*
X107368905Y-62143457D02*
X107288093Y-62170394D01*
X107288093Y-62170394D02*
X107234218Y-62170394D01*
X107234218Y-61146773D02*
X107988465Y-61523897D01*
X107988465Y-61523897D02*
X107611342Y-60769649D01*
X107746028Y-60634963D02*
X108096215Y-60284776D01*
X108096215Y-60284776D02*
X108123152Y-60688837D01*
X108123152Y-60688837D02*
X108203964Y-60608025D01*
X108203964Y-60608025D02*
X108284776Y-60581088D01*
X108284776Y-60581088D02*
X108338651Y-60581088D01*
X108338651Y-60581088D02*
X108419464Y-60608025D01*
X108419464Y-60608025D02*
X108554151Y-60742712D01*
X108554151Y-60742712D02*
X108581088Y-60823524D01*
X108581088Y-60823524D02*
X108581088Y-60877399D01*
X108581088Y-60877399D02*
X108554151Y-60958211D01*
X108554151Y-60958211D02*
X108392526Y-61119836D01*
X108392526Y-61119836D02*
X108311714Y-61146773D01*
X108311714Y-61146773D02*
X108257839Y-61146773D01*
X108823525Y-60796587D02*
X109254523Y-60365588D01*
X109039024Y-59880715D02*
X109227586Y-59692153D01*
X109604709Y-59907652D02*
X109335335Y-60177026D01*
X109335335Y-60177026D02*
X108769650Y-59611341D01*
X108769650Y-59611341D02*
X109039024Y-59341967D01*
X109847146Y-59665215D02*
X109281461Y-59099530D01*
X109281461Y-59099530D02*
X110170395Y-59341967D01*
X110170395Y-59341967D02*
X109604710Y-58776281D01*
X87600475Y-103894200D02*
X87714761Y-103932295D01*
X87714761Y-103932295D02*
X87905237Y-103932295D01*
X87905237Y-103932295D02*
X87981428Y-103894200D01*
X87981428Y-103894200D02*
X88019523Y-103856104D01*
X88019523Y-103856104D02*
X88057618Y-103779914D01*
X88057618Y-103779914D02*
X88057618Y-103703723D01*
X88057618Y-103703723D02*
X88019523Y-103627533D01*
X88019523Y-103627533D02*
X87981428Y-103589438D01*
X87981428Y-103589438D02*
X87905237Y-103551342D01*
X87905237Y-103551342D02*
X87752856Y-103513247D01*
X87752856Y-103513247D02*
X87676666Y-103475152D01*
X87676666Y-103475152D02*
X87638571Y-103437057D01*
X87638571Y-103437057D02*
X87600475Y-103360866D01*
X87600475Y-103360866D02*
X87600475Y-103284676D01*
X87600475Y-103284676D02*
X87638571Y-103208485D01*
X87638571Y-103208485D02*
X87676666Y-103170390D01*
X87676666Y-103170390D02*
X87752856Y-103132295D01*
X87752856Y-103132295D02*
X87943333Y-103132295D01*
X87943333Y-103132295D02*
X88057618Y-103170390D01*
X88324285Y-103132295D02*
X88514761Y-103932295D01*
X88514761Y-103932295D02*
X88667142Y-103360866D01*
X88667142Y-103360866D02*
X88819523Y-103932295D01*
X88819523Y-103932295D02*
X89010000Y-103132295D01*
X89771905Y-103856104D02*
X89733809Y-103894200D01*
X89733809Y-103894200D02*
X89619524Y-103932295D01*
X89619524Y-103932295D02*
X89543333Y-103932295D01*
X89543333Y-103932295D02*
X89429047Y-103894200D01*
X89429047Y-103894200D02*
X89352857Y-103818009D01*
X89352857Y-103818009D02*
X89314762Y-103741819D01*
X89314762Y-103741819D02*
X89276666Y-103589438D01*
X89276666Y-103589438D02*
X89276666Y-103475152D01*
X89276666Y-103475152D02*
X89314762Y-103322771D01*
X89314762Y-103322771D02*
X89352857Y-103246580D01*
X89352857Y-103246580D02*
X89429047Y-103170390D01*
X89429047Y-103170390D02*
X89543333Y-103132295D01*
X89543333Y-103132295D02*
X89619524Y-103132295D01*
X89619524Y-103132295D02*
X89733809Y-103170390D01*
X89733809Y-103170390D02*
X89771905Y-103208485D01*
X90495714Y-103932295D02*
X90114762Y-103932295D01*
X90114762Y-103932295D02*
X90114762Y-103132295D01*
X90762381Y-103932295D02*
X90762381Y-103132295D01*
X91219524Y-103932295D02*
X90876666Y-103475152D01*
X91219524Y-103132295D02*
X90762381Y-103589438D01*
X107207998Y-76490868D02*
X107127185Y-76517805D01*
X107127185Y-76517805D02*
X107046373Y-76598618D01*
X107046373Y-76598618D02*
X106992498Y-76706367D01*
X106992498Y-76706367D02*
X106992498Y-76814117D01*
X106992498Y-76814117D02*
X107019436Y-76894929D01*
X107019436Y-76894929D02*
X107100248Y-77029616D01*
X107100248Y-77029616D02*
X107181060Y-77110428D01*
X107181060Y-77110428D02*
X107315747Y-77191241D01*
X107315747Y-77191241D02*
X107396560Y-77218178D01*
X107396560Y-77218178D02*
X107504309Y-77218178D01*
X107504309Y-77218178D02*
X107612059Y-77164303D01*
X107612059Y-77164303D02*
X107665934Y-77110428D01*
X107665934Y-77110428D02*
X107719808Y-77002679D01*
X107719808Y-77002679D02*
X107719808Y-76948804D01*
X107719808Y-76948804D02*
X107531247Y-76760242D01*
X107531247Y-76760242D02*
X107423497Y-76867992D01*
X108016120Y-76760242D02*
X107450434Y-76194557D01*
X107450434Y-76194557D02*
X107665934Y-75979057D01*
X107665934Y-75979057D02*
X107746746Y-75952120D01*
X107746746Y-75952120D02*
X107800621Y-75952120D01*
X107800621Y-75952120D02*
X107881433Y-75979057D01*
X107881433Y-75979057D02*
X107962245Y-76059870D01*
X107962245Y-76059870D02*
X107989182Y-76140682D01*
X107989182Y-76140682D02*
X107989182Y-76194557D01*
X107989182Y-76194557D02*
X107962245Y-76275369D01*
X107962245Y-76275369D02*
X107746746Y-76490868D01*
X108043057Y-75709683D02*
X108043057Y-75655809D01*
X108043057Y-75655809D02*
X108069995Y-75574996D01*
X108069995Y-75574996D02*
X108204682Y-75440309D01*
X108204682Y-75440309D02*
X108285494Y-75413372D01*
X108285494Y-75413372D02*
X108339369Y-75413372D01*
X108339369Y-75413372D02*
X108420181Y-75440309D01*
X108420181Y-75440309D02*
X108474056Y-75494184D01*
X108474056Y-75494184D02*
X108527930Y-75601934D01*
X108527930Y-75601934D02*
X108527930Y-76248431D01*
X108527930Y-76248431D02*
X108878117Y-75898245D01*
X108797305Y-74847686D02*
X108689555Y-74955436D01*
X108689555Y-74955436D02*
X108662618Y-75036248D01*
X108662618Y-75036248D02*
X108662618Y-75090123D01*
X108662618Y-75090123D02*
X108689555Y-75224810D01*
X108689555Y-75224810D02*
X108770367Y-75359497D01*
X108770367Y-75359497D02*
X108985866Y-75574996D01*
X108985866Y-75574996D02*
X109066679Y-75601934D01*
X109066679Y-75601934D02*
X109120553Y-75601934D01*
X109120553Y-75601934D02*
X109201366Y-75574996D01*
X109201366Y-75574996D02*
X109309115Y-75467247D01*
X109309115Y-75467247D02*
X109336053Y-75386434D01*
X109336053Y-75386434D02*
X109336053Y-75332560D01*
X109336053Y-75332560D02*
X109309115Y-75251747D01*
X109309115Y-75251747D02*
X109174428Y-75117060D01*
X109174428Y-75117060D02*
X109093616Y-75090123D01*
X109093616Y-75090123D02*
X109039741Y-75090123D01*
X109039741Y-75090123D02*
X108958929Y-75117060D01*
X108958929Y-75117060D02*
X108851179Y-75224810D01*
X108851179Y-75224810D02*
X108824242Y-75305622D01*
X108824242Y-75305622D02*
X108824242Y-75359497D01*
X108824242Y-75359497D02*
X108851179Y-75440309D01*
X107207998Y-99350868D02*
X107127185Y-99377805D01*
X107127185Y-99377805D02*
X107046373Y-99458618D01*
X107046373Y-99458618D02*
X106992498Y-99566367D01*
X106992498Y-99566367D02*
X106992498Y-99674117D01*
X106992498Y-99674117D02*
X107019436Y-99754929D01*
X107019436Y-99754929D02*
X107100248Y-99889616D01*
X107100248Y-99889616D02*
X107181060Y-99970428D01*
X107181060Y-99970428D02*
X107315747Y-100051241D01*
X107315747Y-100051241D02*
X107396560Y-100078178D01*
X107396560Y-100078178D02*
X107504309Y-100078178D01*
X107504309Y-100078178D02*
X107612059Y-100024303D01*
X107612059Y-100024303D02*
X107665934Y-99970428D01*
X107665934Y-99970428D02*
X107719808Y-99862679D01*
X107719808Y-99862679D02*
X107719808Y-99808804D01*
X107719808Y-99808804D02*
X107531247Y-99620242D01*
X107531247Y-99620242D02*
X107423497Y-99727992D01*
X108016120Y-99620242D02*
X107450434Y-99054557D01*
X107450434Y-99054557D02*
X107665934Y-98839057D01*
X107665934Y-98839057D02*
X107746746Y-98812120D01*
X107746746Y-98812120D02*
X107800621Y-98812120D01*
X107800621Y-98812120D02*
X107881433Y-98839057D01*
X107881433Y-98839057D02*
X107962245Y-98919870D01*
X107962245Y-98919870D02*
X107989182Y-99000682D01*
X107989182Y-99000682D02*
X107989182Y-99054557D01*
X107989182Y-99054557D02*
X107962245Y-99135369D01*
X107962245Y-99135369D02*
X107746746Y-99350868D01*
X108878117Y-98758245D02*
X108554868Y-99081494D01*
X108716492Y-98919870D02*
X108150807Y-98354184D01*
X108150807Y-98354184D02*
X108177744Y-98488871D01*
X108177744Y-98488871D02*
X108177744Y-98596621D01*
X108177744Y-98596621D02*
X108150807Y-98677433D01*
X108500993Y-98003998D02*
X108878117Y-97626874D01*
X108878117Y-97626874D02*
X109201366Y-98434996D01*
X81099998Y-101890868D02*
X81019185Y-101917805D01*
X81019185Y-101917805D02*
X80938373Y-101998618D01*
X80938373Y-101998618D02*
X80884498Y-102106367D01*
X80884498Y-102106367D02*
X80884498Y-102214117D01*
X80884498Y-102214117D02*
X80911436Y-102294929D01*
X80911436Y-102294929D02*
X80992248Y-102429616D01*
X80992248Y-102429616D02*
X81073060Y-102510428D01*
X81073060Y-102510428D02*
X81207747Y-102591241D01*
X81207747Y-102591241D02*
X81288560Y-102618178D01*
X81288560Y-102618178D02*
X81396309Y-102618178D01*
X81396309Y-102618178D02*
X81504059Y-102564303D01*
X81504059Y-102564303D02*
X81557934Y-102510428D01*
X81557934Y-102510428D02*
X81611808Y-102402679D01*
X81611808Y-102402679D02*
X81611808Y-102348804D01*
X81611808Y-102348804D02*
X81423247Y-102160242D01*
X81423247Y-102160242D02*
X81315497Y-102267992D01*
X81908120Y-102160242D02*
X81342434Y-101594557D01*
X81342434Y-101594557D02*
X81557934Y-101379057D01*
X81557934Y-101379057D02*
X81638746Y-101352120D01*
X81638746Y-101352120D02*
X81692621Y-101352120D01*
X81692621Y-101352120D02*
X81773433Y-101379057D01*
X81773433Y-101379057D02*
X81854245Y-101459870D01*
X81854245Y-101459870D02*
X81881182Y-101540682D01*
X81881182Y-101540682D02*
X81881182Y-101594557D01*
X81881182Y-101594557D02*
X81854245Y-101675369D01*
X81854245Y-101675369D02*
X81638746Y-101890868D01*
X82770117Y-101298245D02*
X82446868Y-101621494D01*
X82608492Y-101459870D02*
X82042807Y-100894184D01*
X82042807Y-100894184D02*
X82069744Y-101028871D01*
X82069744Y-101028871D02*
X82069744Y-101136621D01*
X82069744Y-101136621D02*
X82042807Y-101217433D01*
X82716242Y-100220749D02*
X82446868Y-100490123D01*
X82446868Y-100490123D02*
X82689305Y-100786434D01*
X82689305Y-100786434D02*
X82689305Y-100732560D01*
X82689305Y-100732560D02*
X82716242Y-100651747D01*
X82716242Y-100651747D02*
X82850929Y-100517060D01*
X82850929Y-100517060D02*
X82931741Y-100490123D01*
X82931741Y-100490123D02*
X82985616Y-100490123D01*
X82985616Y-100490123D02*
X83066428Y-100517060D01*
X83066428Y-100517060D02*
X83201115Y-100651747D01*
X83201115Y-100651747D02*
X83228053Y-100732560D01*
X83228053Y-100732560D02*
X83228053Y-100786434D01*
X83228053Y-100786434D02*
X83201115Y-100867247D01*
X83201115Y-100867247D02*
X83066428Y-101001934D01*
X83066428Y-101001934D02*
X82985616Y-101028871D01*
X82985616Y-101028871D02*
X82931741Y-101028871D01*
X81723372Y-76191494D02*
X81642560Y-76218431D01*
X81642560Y-76218431D02*
X81561748Y-76299243D01*
X81561748Y-76299243D02*
X81507873Y-76406993D01*
X81507873Y-76406993D02*
X81507873Y-76514742D01*
X81507873Y-76514742D02*
X81534810Y-76595555D01*
X81534810Y-76595555D02*
X81615623Y-76730242D01*
X81615623Y-76730242D02*
X81696435Y-76811054D01*
X81696435Y-76811054D02*
X81831122Y-76891866D01*
X81831122Y-76891866D02*
X81911934Y-76918803D01*
X81911934Y-76918803D02*
X82019684Y-76918803D01*
X82019684Y-76918803D02*
X82127433Y-76864929D01*
X82127433Y-76864929D02*
X82181308Y-76811054D01*
X82181308Y-76811054D02*
X82235183Y-76703304D01*
X82235183Y-76703304D02*
X82235183Y-76649429D01*
X82235183Y-76649429D02*
X82046621Y-76460868D01*
X82046621Y-76460868D02*
X81938871Y-76568617D01*
X82531494Y-76460868D02*
X81965809Y-75895182D01*
X81965809Y-75895182D02*
X82181308Y-75679683D01*
X82181308Y-75679683D02*
X82262120Y-75652746D01*
X82262120Y-75652746D02*
X82315995Y-75652746D01*
X82315995Y-75652746D02*
X82396807Y-75679683D01*
X82396807Y-75679683D02*
X82477619Y-75760495D01*
X82477619Y-75760495D02*
X82504557Y-75841307D01*
X82504557Y-75841307D02*
X82504557Y-75895182D01*
X82504557Y-75895182D02*
X82477619Y-75975994D01*
X82477619Y-75975994D02*
X82262120Y-76191494D01*
X82477619Y-75383372D02*
X82854743Y-75006248D01*
X82854743Y-75006248D02*
X83177992Y-75814370D01*
X81623372Y-66061494D02*
X81542560Y-66088431D01*
X81542560Y-66088431D02*
X81461748Y-66169243D01*
X81461748Y-66169243D02*
X81407873Y-66276993D01*
X81407873Y-66276993D02*
X81407873Y-66384742D01*
X81407873Y-66384742D02*
X81434810Y-66465555D01*
X81434810Y-66465555D02*
X81515623Y-66600242D01*
X81515623Y-66600242D02*
X81596435Y-66681054D01*
X81596435Y-66681054D02*
X81731122Y-66761866D01*
X81731122Y-66761866D02*
X81811934Y-66788803D01*
X81811934Y-66788803D02*
X81919684Y-66788803D01*
X81919684Y-66788803D02*
X82027433Y-66734929D01*
X82027433Y-66734929D02*
X82081308Y-66681054D01*
X82081308Y-66681054D02*
X82135183Y-66573304D01*
X82135183Y-66573304D02*
X82135183Y-66519429D01*
X82135183Y-66519429D02*
X81946621Y-66330868D01*
X81946621Y-66330868D02*
X81838871Y-66438617D01*
X82431494Y-66330868D02*
X81865809Y-65765182D01*
X81865809Y-65765182D02*
X82081308Y-65549683D01*
X82081308Y-65549683D02*
X82162120Y-65522746D01*
X82162120Y-65522746D02*
X82215995Y-65522746D01*
X82215995Y-65522746D02*
X82296807Y-65549683D01*
X82296807Y-65549683D02*
X82377619Y-65630495D01*
X82377619Y-65630495D02*
X82404557Y-65711307D01*
X82404557Y-65711307D02*
X82404557Y-65765182D01*
X82404557Y-65765182D02*
X82377619Y-65845994D01*
X82377619Y-65845994D02*
X82162120Y-66061494D01*
X82862493Y-65145622D02*
X83239616Y-65522746D01*
X82512306Y-65064810D02*
X82781680Y-65603558D01*
X82781680Y-65603558D02*
X83131867Y-65253372D01*
X107155064Y-67034049D02*
X107424438Y-66764675D01*
X107262813Y-67249549D02*
X106885690Y-66495301D01*
X106885690Y-66495301D02*
X107639937Y-66872425D01*
X107828499Y-66683863D02*
X107262813Y-66118178D01*
X107262813Y-66118178D02*
X107397500Y-65983491D01*
X107397500Y-65983491D02*
X107505250Y-65929616D01*
X107505250Y-65929616D02*
X107612999Y-65929616D01*
X107612999Y-65929616D02*
X107693812Y-65956553D01*
X107693812Y-65956553D02*
X107828499Y-66037366D01*
X107828499Y-66037366D02*
X107909311Y-66118178D01*
X107909311Y-66118178D02*
X107990123Y-66252865D01*
X107990123Y-66252865D02*
X108017060Y-66333677D01*
X108017060Y-66333677D02*
X108017060Y-66441427D01*
X108017060Y-66441427D02*
X107963186Y-66549176D01*
X107963186Y-66549176D02*
X107828499Y-66683863D01*
X108663558Y-65741054D02*
X108663558Y-65794929D01*
X108663558Y-65794929D02*
X108609683Y-65902679D01*
X108609683Y-65902679D02*
X108555808Y-65956553D01*
X108555808Y-65956553D02*
X108448059Y-66010428D01*
X108448059Y-66010428D02*
X108340309Y-66010428D01*
X108340309Y-66010428D02*
X108259497Y-65983491D01*
X108259497Y-65983491D02*
X108124810Y-65902679D01*
X108124810Y-65902679D02*
X108043998Y-65821866D01*
X108043998Y-65821866D02*
X107963186Y-65687179D01*
X107963186Y-65687179D02*
X107936248Y-65606367D01*
X107936248Y-65606367D02*
X107936248Y-65498618D01*
X107936248Y-65498618D02*
X107990123Y-65390868D01*
X107990123Y-65390868D02*
X108043998Y-65336993D01*
X108043998Y-65336993D02*
X108151747Y-65283118D01*
X108151747Y-65283118D02*
X108205622Y-65283118D01*
X108879057Y-65741054D02*
X109310056Y-65310056D01*
X108744370Y-64636621D02*
X109498618Y-65013744D01*
X109498618Y-65013744D02*
X109121494Y-64259497D01*
X110198990Y-64313372D02*
X109741054Y-64232560D01*
X109875741Y-64636621D02*
X109310056Y-64070935D01*
X109310056Y-64070935D02*
X109525555Y-63855436D01*
X109525555Y-63855436D02*
X109606367Y-63828499D01*
X109606367Y-63828499D02*
X109660242Y-63828499D01*
X109660242Y-63828499D02*
X109741054Y-63855436D01*
X109741054Y-63855436D02*
X109821866Y-63936248D01*
X109821866Y-63936248D02*
X109848804Y-64017061D01*
X109848804Y-64017061D02*
X109848804Y-64070935D01*
X109848804Y-64070935D02*
X109821866Y-64151748D01*
X109821866Y-64151748D02*
X109606367Y-64367247D01*
X110145115Y-63774624D02*
X110333677Y-63586062D01*
X110710800Y-63801561D02*
X110441426Y-64070935D01*
X110441426Y-64070935D02*
X109875741Y-63505250D01*
X109875741Y-63505250D02*
X110145115Y-63235876D01*
X110845488Y-63074251D02*
X110656926Y-63262813D01*
X110953237Y-63559125D02*
X110387552Y-62993439D01*
X110387552Y-62993439D02*
X110656926Y-62724065D01*
X81099998Y-94270868D02*
X81019185Y-94297805D01*
X81019185Y-94297805D02*
X80938373Y-94378618D01*
X80938373Y-94378618D02*
X80884498Y-94486367D01*
X80884498Y-94486367D02*
X80884498Y-94594117D01*
X80884498Y-94594117D02*
X80911436Y-94674929D01*
X80911436Y-94674929D02*
X80992248Y-94809616D01*
X80992248Y-94809616D02*
X81073060Y-94890428D01*
X81073060Y-94890428D02*
X81207747Y-94971241D01*
X81207747Y-94971241D02*
X81288560Y-94998178D01*
X81288560Y-94998178D02*
X81396309Y-94998178D01*
X81396309Y-94998178D02*
X81504059Y-94944303D01*
X81504059Y-94944303D02*
X81557934Y-94890428D01*
X81557934Y-94890428D02*
X81611808Y-94782679D01*
X81611808Y-94782679D02*
X81611808Y-94728804D01*
X81611808Y-94728804D02*
X81423247Y-94540242D01*
X81423247Y-94540242D02*
X81315497Y-94647992D01*
X81908120Y-94540242D02*
X81342434Y-93974557D01*
X81342434Y-93974557D02*
X81557934Y-93759057D01*
X81557934Y-93759057D02*
X81638746Y-93732120D01*
X81638746Y-93732120D02*
X81692621Y-93732120D01*
X81692621Y-93732120D02*
X81773433Y-93759057D01*
X81773433Y-93759057D02*
X81854245Y-93839870D01*
X81854245Y-93839870D02*
X81881182Y-93920682D01*
X81881182Y-93920682D02*
X81881182Y-93974557D01*
X81881182Y-93974557D02*
X81854245Y-94055369D01*
X81854245Y-94055369D02*
X81638746Y-94270868D01*
X82770117Y-93678245D02*
X82446868Y-94001494D01*
X82608492Y-93839870D02*
X82042807Y-93274184D01*
X82042807Y-93274184D02*
X82069744Y-93408871D01*
X82069744Y-93408871D02*
X82069744Y-93516621D01*
X82069744Y-93516621D02*
X82042807Y-93597433D01*
X82392993Y-92923998D02*
X82743179Y-92573812D01*
X82743179Y-92573812D02*
X82770117Y-92977873D01*
X82770117Y-92977873D02*
X82850929Y-92897060D01*
X82850929Y-92897060D02*
X82931741Y-92870123D01*
X82931741Y-92870123D02*
X82985616Y-92870123D01*
X82985616Y-92870123D02*
X83066428Y-92897060D01*
X83066428Y-92897060D02*
X83201115Y-93031747D01*
X83201115Y-93031747D02*
X83228053Y-93112560D01*
X83228053Y-93112560D02*
X83228053Y-93166434D01*
X83228053Y-93166434D02*
X83201115Y-93247247D01*
X83201115Y-93247247D02*
X83039491Y-93408871D01*
X83039491Y-93408871D02*
X82958679Y-93435808D01*
X82958679Y-93435808D02*
X82904804Y-93435808D01*
X107196435Y-58468431D02*
X107115623Y-58495368D01*
X107115623Y-58495368D02*
X107034811Y-58576180D01*
X107034811Y-58576180D02*
X106980936Y-58683930D01*
X106980936Y-58683930D02*
X106980936Y-58791680D01*
X106980936Y-58791680D02*
X107007873Y-58872492D01*
X107007873Y-58872492D02*
X107088685Y-59007179D01*
X107088685Y-59007179D02*
X107169498Y-59087991D01*
X107169498Y-59087991D02*
X107304185Y-59168803D01*
X107304185Y-59168803D02*
X107384997Y-59195741D01*
X107384997Y-59195741D02*
X107492746Y-59195741D01*
X107492746Y-59195741D02*
X107600496Y-59141866D01*
X107600496Y-59141866D02*
X107654371Y-59087991D01*
X107654371Y-59087991D02*
X107708246Y-58980241D01*
X107708246Y-58980241D02*
X107708246Y-58926367D01*
X107708246Y-58926367D02*
X107519684Y-58737805D01*
X107519684Y-58737805D02*
X107411934Y-58845554D01*
X108004557Y-58737805D02*
X107438872Y-58172119D01*
X107438872Y-58172119D02*
X108327806Y-58414556D01*
X108327806Y-58414556D02*
X107762120Y-57848871D01*
X108597180Y-58145182D02*
X108031494Y-57579497D01*
X108031494Y-57579497D02*
X108166181Y-57444810D01*
X108166181Y-57444810D02*
X108273931Y-57390935D01*
X108273931Y-57390935D02*
X108381680Y-57390935D01*
X108381680Y-57390935D02*
X108462493Y-57417872D01*
X108462493Y-57417872D02*
X108597180Y-57498685D01*
X108597180Y-57498685D02*
X108677992Y-57579497D01*
X108677992Y-57579497D02*
X108758804Y-57714184D01*
X108758804Y-57714184D02*
X108785741Y-57794996D01*
X108785741Y-57794996D02*
X108785741Y-57902746D01*
X108785741Y-57902746D02*
X108731867Y-58010495D01*
X108731867Y-58010495D02*
X108597180Y-58145182D01*
X106653406Y-53227585D02*
X107407653Y-53604709D01*
X107407653Y-53604709D02*
X107030529Y-52850462D01*
X107677027Y-52742712D02*
X107784776Y-52688838D01*
X107784776Y-52688838D02*
X107838651Y-52688838D01*
X107838651Y-52688838D02*
X107919463Y-52715775D01*
X107919463Y-52715775D02*
X108000276Y-52796587D01*
X108000276Y-52796587D02*
X108027213Y-52877399D01*
X108027213Y-52877399D02*
X108027213Y-52931274D01*
X108027213Y-52931274D02*
X108000276Y-53012086D01*
X108000276Y-53012086D02*
X107784776Y-53227586D01*
X107784776Y-53227586D02*
X107219091Y-52661900D01*
X107219091Y-52661900D02*
X107407653Y-52473338D01*
X107407653Y-52473338D02*
X107488465Y-52446401D01*
X107488465Y-52446401D02*
X107542340Y-52446401D01*
X107542340Y-52446401D02*
X107623152Y-52473338D01*
X107623152Y-52473338D02*
X107677027Y-52527213D01*
X107677027Y-52527213D02*
X107703964Y-52608025D01*
X107703964Y-52608025D02*
X107703964Y-52661900D01*
X107703964Y-52661900D02*
X107677027Y-52742712D01*
X107677027Y-52742712D02*
X107488465Y-52931274D01*
X107784776Y-52096215D02*
X108242712Y-52554151D01*
X108242712Y-52554151D02*
X108323524Y-52581088D01*
X108323524Y-52581088D02*
X108377399Y-52581088D01*
X108377399Y-52581088D02*
X108458211Y-52554151D01*
X108458211Y-52554151D02*
X108565961Y-52446401D01*
X108565961Y-52446401D02*
X108592898Y-52365589D01*
X108592898Y-52365589D02*
X108592898Y-52311714D01*
X108592898Y-52311714D02*
X108565961Y-52230902D01*
X108565961Y-52230902D02*
X108108025Y-51772966D01*
X108889210Y-52069277D02*
X108996959Y-52015403D01*
X108996959Y-52015403D02*
X109131646Y-51880716D01*
X109131646Y-51880716D02*
X109158584Y-51799903D01*
X109158584Y-51799903D02*
X109158584Y-51746029D01*
X109158584Y-51746029D02*
X109131646Y-51665216D01*
X109131646Y-51665216D02*
X109077771Y-51611342D01*
X109077771Y-51611342D02*
X108996959Y-51584404D01*
X108996959Y-51584404D02*
X108943084Y-51584404D01*
X108943084Y-51584404D02*
X108862272Y-51611342D01*
X108862272Y-51611342D02*
X108727585Y-51692154D01*
X108727585Y-51692154D02*
X108646773Y-51719091D01*
X108646773Y-51719091D02*
X108592898Y-51719091D01*
X108592898Y-51719091D02*
X108512086Y-51692154D01*
X108512086Y-51692154D02*
X108458211Y-51638279D01*
X108458211Y-51638279D02*
X108431274Y-51557467D01*
X108431274Y-51557467D02*
X108431274Y-51503592D01*
X108431274Y-51503592D02*
X108458211Y-51422780D01*
X108458211Y-51422780D02*
X108592898Y-51288093D01*
X108592898Y-51288093D02*
X108700648Y-51234218D01*
X107196435Y-96568431D02*
X107115623Y-96595368D01*
X107115623Y-96595368D02*
X107034811Y-96676180D01*
X107034811Y-96676180D02*
X106980936Y-96783930D01*
X106980936Y-96783930D02*
X106980936Y-96891680D01*
X106980936Y-96891680D02*
X107007873Y-96972492D01*
X107007873Y-96972492D02*
X107088685Y-97107179D01*
X107088685Y-97107179D02*
X107169498Y-97187991D01*
X107169498Y-97187991D02*
X107304185Y-97268803D01*
X107304185Y-97268803D02*
X107384997Y-97295741D01*
X107384997Y-97295741D02*
X107492746Y-97295741D01*
X107492746Y-97295741D02*
X107600496Y-97241866D01*
X107600496Y-97241866D02*
X107654371Y-97187991D01*
X107654371Y-97187991D02*
X107708246Y-97080241D01*
X107708246Y-97080241D02*
X107708246Y-97026367D01*
X107708246Y-97026367D02*
X107519684Y-96837805D01*
X107519684Y-96837805D02*
X107411934Y-96945554D01*
X108004557Y-96837805D02*
X107438872Y-96272119D01*
X107438872Y-96272119D02*
X108327806Y-96514556D01*
X108327806Y-96514556D02*
X107762120Y-95948871D01*
X108597180Y-96245182D02*
X108031494Y-95679497D01*
X108031494Y-95679497D02*
X108166181Y-95544810D01*
X108166181Y-95544810D02*
X108273931Y-95490935D01*
X108273931Y-95490935D02*
X108381680Y-95490935D01*
X108381680Y-95490935D02*
X108462493Y-95517872D01*
X108462493Y-95517872D02*
X108597180Y-95598685D01*
X108597180Y-95598685D02*
X108677992Y-95679497D01*
X108677992Y-95679497D02*
X108758804Y-95814184D01*
X108758804Y-95814184D02*
X108785741Y-95894996D01*
X108785741Y-95894996D02*
X108785741Y-96002746D01*
X108785741Y-96002746D02*
X108731867Y-96110495D01*
X108731867Y-96110495D02*
X108597180Y-96245182D01*
X107097873Y-72091240D02*
X107367247Y-71821866D01*
X107205623Y-72306739D02*
X106828499Y-71552492D01*
X106828499Y-71552492D02*
X107582746Y-71929615D01*
X107528871Y-70905994D02*
X107448059Y-70932932D01*
X107448059Y-70932932D02*
X107367247Y-71013744D01*
X107367247Y-71013744D02*
X107313372Y-71121494D01*
X107313372Y-71121494D02*
X107313372Y-71229243D01*
X107313372Y-71229243D02*
X107340310Y-71310055D01*
X107340310Y-71310055D02*
X107421122Y-71444742D01*
X107421122Y-71444742D02*
X107501934Y-71525555D01*
X107501934Y-71525555D02*
X107636621Y-71606367D01*
X107636621Y-71606367D02*
X107717433Y-71633304D01*
X107717433Y-71633304D02*
X107825183Y-71633304D01*
X107825183Y-71633304D02*
X107932932Y-71579429D01*
X107932932Y-71579429D02*
X107986807Y-71525555D01*
X107986807Y-71525555D02*
X108040682Y-71417805D01*
X108040682Y-71417805D02*
X108040682Y-71363930D01*
X108040682Y-71363930D02*
X107852120Y-71175368D01*
X107852120Y-71175368D02*
X107744371Y-71283118D01*
X108336993Y-71175368D02*
X107771308Y-70609683D01*
X107771308Y-70609683D02*
X108660242Y-70852120D01*
X108660242Y-70852120D02*
X108094557Y-70286434D01*
X108929616Y-70582746D02*
X108363931Y-70017060D01*
X108363931Y-70017060D02*
X108498618Y-69882373D01*
X108498618Y-69882373D02*
X108606367Y-69828498D01*
X108606367Y-69828498D02*
X108714117Y-69828498D01*
X108714117Y-69828498D02*
X108794929Y-69855436D01*
X108794929Y-69855436D02*
X108929616Y-69936248D01*
X108929616Y-69936248D02*
X109010428Y-70017060D01*
X109010428Y-70017060D02*
X109091241Y-70151747D01*
X109091241Y-70151747D02*
X109118178Y-70232560D01*
X109118178Y-70232560D02*
X109118178Y-70340309D01*
X109118178Y-70340309D02*
X109064303Y-70448059D01*
X109064303Y-70448059D02*
X108929616Y-70582746D01*
X80953998Y-89190868D02*
X80873185Y-89217805D01*
X80873185Y-89217805D02*
X80792373Y-89298618D01*
X80792373Y-89298618D02*
X80738498Y-89406367D01*
X80738498Y-89406367D02*
X80738498Y-89514117D01*
X80738498Y-89514117D02*
X80765436Y-89594929D01*
X80765436Y-89594929D02*
X80846248Y-89729616D01*
X80846248Y-89729616D02*
X80927060Y-89810428D01*
X80927060Y-89810428D02*
X81061747Y-89891241D01*
X81061747Y-89891241D02*
X81142560Y-89918178D01*
X81142560Y-89918178D02*
X81250309Y-89918178D01*
X81250309Y-89918178D02*
X81358059Y-89864303D01*
X81358059Y-89864303D02*
X81411934Y-89810428D01*
X81411934Y-89810428D02*
X81465808Y-89702679D01*
X81465808Y-89702679D02*
X81465808Y-89648804D01*
X81465808Y-89648804D02*
X81277247Y-89460242D01*
X81277247Y-89460242D02*
X81169497Y-89567992D01*
X81762120Y-89460242D02*
X81196434Y-88894557D01*
X81196434Y-88894557D02*
X81411934Y-88679057D01*
X81411934Y-88679057D02*
X81492746Y-88652120D01*
X81492746Y-88652120D02*
X81546621Y-88652120D01*
X81546621Y-88652120D02*
X81627433Y-88679057D01*
X81627433Y-88679057D02*
X81708245Y-88759870D01*
X81708245Y-88759870D02*
X81735182Y-88840682D01*
X81735182Y-88840682D02*
X81735182Y-88894557D01*
X81735182Y-88894557D02*
X81708245Y-88975369D01*
X81708245Y-88975369D02*
X81492746Y-89190868D01*
X82624117Y-88598245D02*
X82300868Y-88921494D01*
X82462492Y-88759870D02*
X81896807Y-88194184D01*
X81896807Y-88194184D02*
X81923744Y-88328871D01*
X81923744Y-88328871D02*
X81923744Y-88436621D01*
X81923744Y-88436621D02*
X81896807Y-88517433D01*
X83162865Y-88059497D02*
X82839616Y-88382746D01*
X83001240Y-88221121D02*
X82435555Y-87655436D01*
X82435555Y-87655436D02*
X82462492Y-87790123D01*
X82462492Y-87790123D02*
X82462492Y-87897873D01*
X82462492Y-87897873D02*
X82435555Y-87978685D01*
X115374819Y-82166666D02*
X114898628Y-82499999D01*
X115374819Y-82738094D02*
X114374819Y-82738094D01*
X114374819Y-82738094D02*
X114374819Y-82357142D01*
X114374819Y-82357142D02*
X114422438Y-82261904D01*
X114422438Y-82261904D02*
X114470057Y-82214285D01*
X114470057Y-82214285D02*
X114565295Y-82166666D01*
X114565295Y-82166666D02*
X114708152Y-82166666D01*
X114708152Y-82166666D02*
X114803390Y-82214285D01*
X114803390Y-82214285D02*
X114851009Y-82261904D01*
X114851009Y-82261904D02*
X114898628Y-82357142D01*
X114898628Y-82357142D02*
X114898628Y-82738094D01*
X115374819Y-81214285D02*
X115374819Y-81785713D01*
X115374819Y-81499999D02*
X114374819Y-81499999D01*
X114374819Y-81499999D02*
X114517676Y-81595237D01*
X114517676Y-81595237D02*
X114612914Y-81690475D01*
X114612914Y-81690475D02*
X114660533Y-81785713D01*
X117610057Y-74095238D02*
X117562438Y-74190476D01*
X117562438Y-74190476D02*
X117467200Y-74285714D01*
X117467200Y-74285714D02*
X117324342Y-74428571D01*
X117324342Y-74428571D02*
X117276723Y-74523809D01*
X117276723Y-74523809D02*
X117276723Y-74619047D01*
X117514819Y-74571428D02*
X117467200Y-74666666D01*
X117467200Y-74666666D02*
X117371961Y-74761904D01*
X117371961Y-74761904D02*
X117181485Y-74809523D01*
X117181485Y-74809523D02*
X116848152Y-74809523D01*
X116848152Y-74809523D02*
X116657676Y-74761904D01*
X116657676Y-74761904D02*
X116562438Y-74666666D01*
X116562438Y-74666666D02*
X116514819Y-74571428D01*
X116514819Y-74571428D02*
X116514819Y-74380952D01*
X116514819Y-74380952D02*
X116562438Y-74285714D01*
X116562438Y-74285714D02*
X116657676Y-74190476D01*
X116657676Y-74190476D02*
X116848152Y-74142857D01*
X116848152Y-74142857D02*
X117181485Y-74142857D01*
X117181485Y-74142857D02*
X117371961Y-74190476D01*
X117371961Y-74190476D02*
X117467200Y-74285714D01*
X117467200Y-74285714D02*
X117514819Y-74380952D01*
X117514819Y-74380952D02*
X117514819Y-74571428D01*
X117514819Y-73190476D02*
X117514819Y-73761904D01*
X117514819Y-73476190D02*
X116514819Y-73476190D01*
X116514819Y-73476190D02*
X116657676Y-73571428D01*
X116657676Y-73571428D02*
X116752914Y-73666666D01*
X116752914Y-73666666D02*
X116800533Y-73761904D01*
X78166666Y-59394819D02*
X78166666Y-60109104D01*
X78166666Y-60109104D02*
X78119047Y-60251961D01*
X78119047Y-60251961D02*
X78023809Y-60347200D01*
X78023809Y-60347200D02*
X77880952Y-60394819D01*
X77880952Y-60394819D02*
X77785714Y-60394819D01*
X78547619Y-59394819D02*
X79166666Y-59394819D01*
X79166666Y-59394819D02*
X78833333Y-59775771D01*
X78833333Y-59775771D02*
X78976190Y-59775771D01*
X78976190Y-59775771D02*
X79071428Y-59823390D01*
X79071428Y-59823390D02*
X79119047Y-59871009D01*
X79119047Y-59871009D02*
X79166666Y-59966247D01*
X79166666Y-59966247D02*
X79166666Y-60204342D01*
X79166666Y-60204342D02*
X79119047Y-60299580D01*
X79119047Y-60299580D02*
X79071428Y-60347200D01*
X79071428Y-60347200D02*
X78976190Y-60394819D01*
X78976190Y-60394819D02*
X78690476Y-60394819D01*
X78690476Y-60394819D02*
X78595238Y-60347200D01*
X78595238Y-60347200D02*
X78547619Y-60299580D01*
X114166666Y-59089819D02*
X114166666Y-59804104D01*
X114166666Y-59804104D02*
X114119047Y-59946961D01*
X114119047Y-59946961D02*
X114023809Y-60042200D01*
X114023809Y-60042200D02*
X113880952Y-60089819D01*
X113880952Y-60089819D02*
X113785714Y-60089819D01*
X114595238Y-59185057D02*
X114642857Y-59137438D01*
X114642857Y-59137438D02*
X114738095Y-59089819D01*
X114738095Y-59089819D02*
X114976190Y-59089819D01*
X114976190Y-59089819D02*
X115071428Y-59137438D01*
X115071428Y-59137438D02*
X115119047Y-59185057D01*
X115119047Y-59185057D02*
X115166666Y-59280295D01*
X115166666Y-59280295D02*
X115166666Y-59375533D01*
X115166666Y-59375533D02*
X115119047Y-59518390D01*
X115119047Y-59518390D02*
X114547619Y-60089819D01*
X114547619Y-60089819D02*
X115166666Y-60089819D01*
X123719819Y-84738094D02*
X122719819Y-84738094D01*
X122719819Y-84738094D02*
X122719819Y-84499999D01*
X122719819Y-84499999D02*
X122767438Y-84357142D01*
X122767438Y-84357142D02*
X122862676Y-84261904D01*
X122862676Y-84261904D02*
X122957914Y-84214285D01*
X122957914Y-84214285D02*
X123148390Y-84166666D01*
X123148390Y-84166666D02*
X123291247Y-84166666D01*
X123291247Y-84166666D02*
X123481723Y-84214285D01*
X123481723Y-84214285D02*
X123576961Y-84261904D01*
X123576961Y-84261904D02*
X123672200Y-84357142D01*
X123672200Y-84357142D02*
X123719819Y-84499999D01*
X123719819Y-84499999D02*
X123719819Y-84738094D01*
X123719819Y-83214285D02*
X123719819Y-83785713D01*
X123719819Y-83499999D02*
X122719819Y-83499999D01*
X122719819Y-83499999D02*
X122862676Y-83595237D01*
X122862676Y-83595237D02*
X122957914Y-83690475D01*
X122957914Y-83690475D02*
X123005533Y-83785713D01*
D11*
%TO.C,U1*%
X105610000Y-102870000D02*
X98810000Y-102870000D01*
X105610000Y-100070000D02*
X105610000Y-100470000D01*
X105610000Y-97470000D02*
X105610000Y-97870000D01*
X105610000Y-94970000D02*
X105610000Y-95370000D01*
X105610000Y-92470000D02*
X105610000Y-92870000D01*
X105610000Y-89870000D02*
X105610000Y-90270000D01*
X105610000Y-87370000D02*
X105610000Y-87770000D01*
X105610000Y-84770000D02*
X105610000Y-85170000D01*
X105610000Y-82270000D02*
X105610000Y-82670000D01*
X105610000Y-79670000D02*
X105610000Y-80070000D01*
X105610000Y-77170000D02*
X105610000Y-77570000D01*
X105610000Y-74670000D02*
X105610000Y-75070000D01*
X105610000Y-72070000D02*
X105610000Y-72470000D01*
X105610000Y-69570000D02*
X105610000Y-69970000D01*
X105610000Y-66970000D02*
X105610000Y-67370000D01*
X105610000Y-64470000D02*
X105610000Y-64870000D01*
X105610000Y-61970000D02*
X105610000Y-62370000D01*
X105610000Y-59370000D02*
X105610000Y-59770000D01*
X105610000Y-56870000D02*
X105610000Y-57270000D01*
X105610000Y-54270000D02*
X105610000Y-54670000D01*
X105610000Y-51870000D02*
X105610000Y-52170000D01*
X96210000Y-102870000D02*
X96610000Y-102870000D01*
X93610000Y-102870000D02*
X94010000Y-102870000D01*
X91410000Y-102870000D02*
X84610000Y-102870000D01*
X87617000Y-54537000D02*
X87617000Y-51870000D01*
X84610000Y-100070000D02*
X84610000Y-100470000D01*
X84610000Y-97470000D02*
X84610000Y-97870000D01*
X84610000Y-94970000D02*
X84610000Y-95370000D01*
X84610000Y-92470000D02*
X84610000Y-92870000D01*
X84610000Y-89870000D02*
X84610000Y-90270000D01*
X84610000Y-87370000D02*
X84610000Y-87770000D01*
X84610000Y-84770000D02*
X84610000Y-85170000D01*
X84610000Y-82270000D02*
X84610000Y-82670000D01*
X84610000Y-79670000D02*
X84610000Y-80070000D01*
X84610000Y-77170000D02*
X84610000Y-77570000D01*
X84610000Y-74670000D02*
X84610000Y-75070000D01*
X84610000Y-72070000D02*
X84610000Y-72470000D01*
X84610000Y-69570000D02*
X84610000Y-69970000D01*
X84610000Y-66970000D02*
X84610000Y-67370000D01*
X84610000Y-64470000D02*
X84610000Y-64870000D01*
X84610000Y-61970000D02*
X84610000Y-62370000D01*
X84610000Y-59370000D02*
X84610000Y-59770000D01*
X84610000Y-56870000D02*
X84610000Y-57270000D01*
X84610000Y-54537000D02*
X87617000Y-54537000D01*
X84610000Y-54270000D02*
X84610000Y-54670000D01*
X84610000Y-51870000D02*
X105610000Y-51870000D01*
X84610000Y-51870000D02*
X84610000Y-52170000D01*
%TO.C,R1*%
X113920000Y-80080000D02*
X113920000Y-83920000D01*
X112080000Y-80080000D02*
X112080000Y-83920000D01*
%TO.C,Q1*%
X111650000Y-72200000D02*
X111650000Y-75800000D01*
X111661522Y-72161522D02*
G75*
G02*
X116100000Y-74000000I1838478J-1838478D01*
G01*
X116100000Y-74000000D02*
G75*
G02*
X111661522Y-75838478I-2600000J0D01*
G01*
%TO.C,J3*%
X77805000Y-60815000D02*
X78500000Y-60815000D01*
X77805000Y-61500000D02*
X77805000Y-60815000D01*
X77805000Y-62185000D02*
X77805000Y-65060000D01*
X77805000Y-62185000D02*
X77891724Y-62185000D01*
X77805000Y-65060000D02*
X78105507Y-65060000D01*
X78894493Y-65060000D02*
X79195000Y-65060000D01*
X79108276Y-62185000D02*
X79195000Y-62185000D01*
X79195000Y-62185000D02*
X79195000Y-65060000D01*
%TO.C,J2*%
X115830000Y-56865000D02*
X115830000Y-55535000D01*
X115830000Y-56865000D02*
X115260000Y-56865000D01*
X115830000Y-55535000D02*
X114807530Y-55535000D01*
X114500000Y-58260000D02*
X113170000Y-58260000D01*
X114192470Y-55535000D02*
X113170000Y-55535000D01*
X113740000Y-56865000D02*
X113170000Y-56865000D01*
X113170000Y-58260000D02*
X113170000Y-57500000D01*
X113170000Y-56865000D02*
X113170000Y-55535000D01*
%TO.C,D1*%
X117625000Y-84060000D02*
X120905000Y-84060000D01*
X117625489Y-84059999D02*
G75*
G02*
X119266958Y-78460002I1639511J2559999D01*
G01*
X119263042Y-78460002D02*
G75*
G02*
X120904511Y-84059999I1958J-3039998D01*
G01*
X121765000Y-81500000D02*
G75*
G02*
X116765000Y-81500000I-2500000J0D01*
G01*
X116765000Y-81500000D02*
G75*
G02*
X121765000Y-81500000I2500000J0D01*
G01*
%TD*%
M02*
